<mxfile host="app.diagrams.net" modified="2024-06-26T21:17:04.355Z" agent="Mozilla/5.0 (Windows NT 10.0; Win64; x64) AppleWebKit/537.36 (KHTML, like Gecko) Chrome/123.0.0.0 Safari/537.36 OPR/109.0.0.0" etag="VFtiFgPRj0qhw2NE_2sf" version="24.6.3" type="google">
  <diagram name="Página-1" id="r6En2y7pZFPT0s39UyVa">
    <mxGraphModel grid="0" page="0" gridSize="10" guides="1" tooltips="1" connect="1" arrows="1" fold="1" pageScale="1" pageWidth="827" pageHeight="1169" math="0" shadow="0">
      <root>
        <mxCell id="0" />
        <mxCell id="1" parent="0" />
        <mxCell id="FgIHQq0aLlLY0QIvVYSB-4" style="edgeStyle=orthogonalEdgeStyle;rounded=0;orthogonalLoop=1;jettySize=auto;html=1;" edge="1" parent="1" source="FgIHQq0aLlLY0QIvVYSB-1" target="FgIHQq0aLlLY0QIvVYSB-2">
          <mxGeometry relative="1" as="geometry" />
        </mxCell>
        <mxCell id="FgIHQq0aLlLY0QIvVYSB-52" value="se não houver conta" style="edgeStyle=orthogonalEdgeStyle;rounded=0;orthogonalLoop=1;jettySize=auto;html=1;" edge="1" parent="1" source="FgIHQq0aLlLY0QIvVYSB-1" target="FgIHQq0aLlLY0QIvVYSB-51">
          <mxGeometry relative="1" as="geometry" />
        </mxCell>
        <mxCell id="FgIHQq0aLlLY0QIvVYSB-1" value="" style="ellipse;whiteSpace=wrap;html=1;aspect=fixed;fillColor=#bac8d3;strokeColor=#23445d;" vertex="1" parent="1">
          <mxGeometry x="350" y="-2320" width="80" height="80" as="geometry" />
        </mxCell>
        <mxCell id="FgIHQq0aLlLY0QIvVYSB-49" style="edgeStyle=orthogonalEdgeStyle;rounded=0;orthogonalLoop=1;jettySize=auto;html=1;entryX=1;entryY=0.5;entryDx=0;entryDy=0;" edge="1" parent="1" source="FgIHQq0aLlLY0QIvVYSB-2">
          <mxGeometry relative="1" as="geometry">
            <mxPoint x="150" y="-2240" as="targetPoint" />
            <Array as="points">
              <mxPoint x="160" y="-2170" />
              <mxPoint x="160" y="-2240" />
            </Array>
          </mxGeometry>
        </mxCell>
        <mxCell id="FgIHQq0aLlLY0QIvVYSB-50" style="edgeStyle=orthogonalEdgeStyle;rounded=0;orthogonalLoop=1;jettySize=auto;html=1;" edge="1" parent="1" source="FgIHQq0aLlLY0QIvVYSB-2" target="FgIHQq0aLlLY0QIvVYSB-40">
          <mxGeometry relative="1" as="geometry" />
        </mxCell>
        <mxCell id="FgIHQq0aLlLY0QIvVYSB-2" value="Tela inicial de login" style="rounded=0;whiteSpace=wrap;html=1;fillColor=#fa6800;strokeColor=#C73500;fontColor=#000000;" vertex="1" parent="1">
          <mxGeometry x="180" y="-2200" width="120" height="60" as="geometry" />
        </mxCell>
        <mxCell id="FgIHQq0aLlLY0QIvVYSB-39" value="email" style="ellipse;shape=doubleEllipse;whiteSpace=wrap;html=1;fillColor=#647687;fontColor=#ffffff;strokeColor=#314354;" vertex="1" parent="1">
          <mxGeometry x="50" y="-2270" width="100" height="60" as="geometry" />
        </mxCell>
        <mxCell id="FgIHQq0aLlLY0QIvVYSB-40" value="senha" style="ellipse;shape=doubleEllipse;whiteSpace=wrap;html=1;fillColor=#647687;fontColor=#ffffff;strokeColor=#314354;" vertex="1" parent="1">
          <mxGeometry x="50" y="-2200" width="100" height="60" as="geometry" />
        </mxCell>
        <mxCell id="FgIHQq0aLlLY0QIvVYSB-53" style="edgeStyle=orthogonalEdgeStyle;rounded=0;orthogonalLoop=1;jettySize=auto;html=1;" edge="1" parent="1" source="FgIHQq0aLlLY0QIvVYSB-51" target="FgIHQq0aLlLY0QIvVYSB-2">
          <mxGeometry relative="1" as="geometry" />
        </mxCell>
        <mxCell id="FgIHQq0aLlLY0QIvVYSB-65" style="edgeStyle=orthogonalEdgeStyle;rounded=0;orthogonalLoop=1;jettySize=auto;html=1;" edge="1" parent="1" source="FgIHQq0aLlLY0QIvVYSB-51" target="FgIHQq0aLlLY0QIvVYSB-60">
          <mxGeometry relative="1" as="geometry" />
        </mxCell>
        <mxCell id="FgIHQq0aLlLY0QIvVYSB-51" value="" style="rhombus;whiteSpace=wrap;html=1;fillColor=#647687;fontColor=#ffffff;strokeColor=#314354;" vertex="1" parent="1">
          <mxGeometry x="360" y="-2200" width="60" height="60" as="geometry" />
        </mxCell>
        <mxCell id="FgIHQq0aLlLY0QIvVYSB-67" style="edgeStyle=orthogonalEdgeStyle;rounded=0;orthogonalLoop=1;jettySize=auto;html=1;entryX=0;entryY=0.5;entryDx=0;entryDy=0;" edge="1" parent="1" source="FgIHQq0aLlLY0QIvVYSB-60" target="FgIHQq0aLlLY0QIvVYSB-63">
          <mxGeometry relative="1" as="geometry" />
        </mxCell>
        <mxCell id="FgIHQq0aLlLY0QIvVYSB-68" style="edgeStyle=orthogonalEdgeStyle;rounded=0;orthogonalLoop=1;jettySize=auto;html=1;" edge="1" parent="1" source="FgIHQq0aLlLY0QIvVYSB-60" target="FgIHQq0aLlLY0QIvVYSB-64">
          <mxGeometry relative="1" as="geometry" />
        </mxCell>
        <mxCell id="FgIHQq0aLlLY0QIvVYSB-69" style="edgeStyle=orthogonalEdgeStyle;rounded=0;orthogonalLoop=1;jettySize=auto;html=1;entryX=0;entryY=0.5;entryDx=0;entryDy=0;" edge="1" parent="1" source="FgIHQq0aLlLY0QIvVYSB-60" target="FgIHQq0aLlLY0QIvVYSB-66">
          <mxGeometry relative="1" as="geometry" />
        </mxCell>
        <mxCell id="FgIHQq0aLlLY0QIvVYSB-71" style="edgeStyle=orthogonalEdgeStyle;rounded=0;orthogonalLoop=1;jettySize=auto;html=1;entryX=0.5;entryY=0;entryDx=0;entryDy=0;" edge="1" parent="1" source="FgIHQq0aLlLY0QIvVYSB-60" target="FgIHQq0aLlLY0QIvVYSB-70">
          <mxGeometry relative="1" as="geometry">
            <Array as="points">
              <mxPoint x="550" y="-2120" />
              <mxPoint x="390" y="-2120" />
            </Array>
          </mxGeometry>
        </mxCell>
        <mxCell id="FgIHQq0aLlLY0QIvVYSB-60" value="Tela de cadastro" style="rounded=0;whiteSpace=wrap;html=1;fillColor=#fa6800;strokeColor=#C73500;fontColor=#000000;" vertex="1" parent="1">
          <mxGeometry x="490" y="-2200" width="120" height="60" as="geometry" />
        </mxCell>
        <mxCell id="FgIHQq0aLlLY0QIvVYSB-63" value="email" style="ellipse;shape=doubleEllipse;whiteSpace=wrap;html=1;fillColor=#647687;fontColor=#ffffff;strokeColor=#314354;" vertex="1" parent="1">
          <mxGeometry x="660" y="-2270" width="100" height="60" as="geometry" />
        </mxCell>
        <mxCell id="FgIHQq0aLlLY0QIvVYSB-64" value="senha" style="ellipse;shape=doubleEllipse;whiteSpace=wrap;html=1;fillColor=#647687;fontColor=#ffffff;strokeColor=#314354;" vertex="1" parent="1">
          <mxGeometry x="660" y="-2200" width="100" height="60" as="geometry" />
        </mxCell>
        <mxCell id="FgIHQq0aLlLY0QIvVYSB-66" value="confirmar senha" style="ellipse;shape=doubleEllipse;whiteSpace=wrap;html=1;fillColor=#647687;fontColor=#ffffff;strokeColor=#314354;" vertex="1" parent="1">
          <mxGeometry x="660" y="-2130" width="100" height="60" as="geometry" />
        </mxCell>
        <mxCell id="FgIHQq0aLlLY0QIvVYSB-74" style="edgeStyle=orthogonalEdgeStyle;rounded=0;orthogonalLoop=1;jettySize=auto;html=1;entryX=1;entryY=0.5;entryDx=0;entryDy=0;" edge="1" parent="1" source="FgIHQq0aLlLY0QIvVYSB-70" target="FgIHQq0aLlLY0QIvVYSB-72">
          <mxGeometry relative="1" as="geometry" />
        </mxCell>
        <mxCell id="FgIHQq0aLlLY0QIvVYSB-75" style="edgeStyle=orthogonalEdgeStyle;rounded=0;orthogonalLoop=1;jettySize=auto;html=1;exitX=0;exitY=0.5;exitDx=0;exitDy=0;entryX=1;entryY=0.5;entryDx=0;entryDy=0;" edge="1" parent="1" source="FgIHQq0aLlLY0QIvVYSB-70" target="FgIHQq0aLlLY0QIvVYSB-73">
          <mxGeometry relative="1" as="geometry" />
        </mxCell>
        <mxCell id="FgIHQq0aLlLY0QIvVYSB-77" style="edgeStyle=orthogonalEdgeStyle;rounded=0;orthogonalLoop=1;jettySize=auto;html=1;" edge="1" parent="1" source="FgIHQq0aLlLY0QIvVYSB-70" target="FgIHQq0aLlLY0QIvVYSB-76">
          <mxGeometry relative="1" as="geometry" />
        </mxCell>
        <mxCell id="FgIHQq0aLlLY0QIvVYSB-70" value="tela inicial atualizada" style="rounded=0;whiteSpace=wrap;html=1;fillColor=#fa6800;fontColor=#000000;strokeColor=#C73500;" vertex="1" parent="1">
          <mxGeometry x="330" y="-2080" width="120" height="60" as="geometry" />
        </mxCell>
        <mxCell id="FgIHQq0aLlLY0QIvVYSB-72" value="email" style="ellipse;shape=doubleEllipse;whiteSpace=wrap;html=1;fillColor=#647687;fontColor=#ffffff;strokeColor=#314354;" vertex="1" parent="1">
          <mxGeometry x="160" y="-2115" width="100" height="60" as="geometry" />
        </mxCell>
        <mxCell id="FgIHQq0aLlLY0QIvVYSB-73" value="senha" style="ellipse;shape=doubleEllipse;whiteSpace=wrap;html=1;fillColor=#647687;fontColor=#ffffff;strokeColor=#314354;" vertex="1" parent="1">
          <mxGeometry x="160" y="-2045" width="100" height="60" as="geometry" />
        </mxCell>
        <mxCell id="FgIHQq0aLlLY0QIvVYSB-79" style="edgeStyle=orthogonalEdgeStyle;rounded=0;orthogonalLoop=1;jettySize=auto;html=1;entryX=0.5;entryY=0;entryDx=0;entryDy=0;" edge="1" parent="1" source="FgIHQq0aLlLY0QIvVYSB-76" target="FgIHQq0aLlLY0QIvVYSB-78">
          <mxGeometry relative="1" as="geometry" />
        </mxCell>
        <mxCell id="FgIHQq0aLlLY0QIvVYSB-76" value="tela cardápio" style="rounded=0;whiteSpace=wrap;html=1;fillColor=#fa6800;fontColor=#000000;strokeColor=#C73500;" vertex="1" parent="1">
          <mxGeometry x="330" y="-1985" width="120" height="60" as="geometry" />
        </mxCell>
        <mxCell id="FgIHQq0aLlLY0QIvVYSB-83" style="edgeStyle=orthogonalEdgeStyle;rounded=0;orthogonalLoop=1;jettySize=auto;html=1;entryX=1;entryY=0.5;entryDx=0;entryDy=0;" edge="1" parent="1" source="FgIHQq0aLlLY0QIvVYSB-78" target="FgIHQq0aLlLY0QIvVYSB-81">
          <mxGeometry relative="1" as="geometry" />
        </mxCell>
        <mxCell id="FgIHQq0aLlLY0QIvVYSB-78" value="painel conta" style="rounded=0;whiteSpace=wrap;html=1;fillColor=#fa6800;fontColor=#000000;strokeColor=#C73500;" vertex="1" parent="1">
          <mxGeometry x="330" y="-1890" width="120" height="60" as="geometry" />
        </mxCell>
        <mxCell id="FgIHQq0aLlLY0QIvVYSB-93" style="edgeStyle=orthogonalEdgeStyle;rounded=0;orthogonalLoop=1;jettySize=auto;html=1;entryX=1;entryY=0.5;entryDx=0;entryDy=0;" edge="1" parent="1" source="FgIHQq0aLlLY0QIvVYSB-81" target="FgIHQq0aLlLY0QIvVYSB-85">
          <mxGeometry relative="1" as="geometry" />
        </mxCell>
        <mxCell id="FgIHQq0aLlLY0QIvVYSB-94" style="edgeStyle=orthogonalEdgeStyle;rounded=0;orthogonalLoop=1;jettySize=auto;html=1;entryX=0;entryY=0.5;entryDx=0;entryDy=0;" edge="1" parent="1" source="FgIHQq0aLlLY0QIvVYSB-81" target="FgIHQq0aLlLY0QIvVYSB-89">
          <mxGeometry relative="1" as="geometry">
            <Array as="points">
              <mxPoint x="200" y="-1790" />
            </Array>
          </mxGeometry>
        </mxCell>
        <mxCell id="FgIHQq0aLlLY0QIvVYSB-95" style="edgeStyle=orthogonalEdgeStyle;rounded=0;orthogonalLoop=1;jettySize=auto;html=1;entryX=1;entryY=0.5;entryDx=0;entryDy=0;" edge="1" parent="1" source="FgIHQq0aLlLY0QIvVYSB-81" target="FgIHQq0aLlLY0QIvVYSB-86">
          <mxGeometry relative="1" as="geometry" />
        </mxCell>
        <mxCell id="FgIHQq0aLlLY0QIvVYSB-96" style="edgeStyle=orthogonalEdgeStyle;rounded=0;orthogonalLoop=1;jettySize=auto;html=1;entryX=0;entryY=0.5;entryDx=0;entryDy=0;" edge="1" parent="1" source="FgIHQq0aLlLY0QIvVYSB-81" target="FgIHQq0aLlLY0QIvVYSB-90">
          <mxGeometry relative="1" as="geometry" />
        </mxCell>
        <mxCell id="FgIHQq0aLlLY0QIvVYSB-97" style="edgeStyle=orthogonalEdgeStyle;rounded=0;orthogonalLoop=1;jettySize=auto;html=1;entryX=1;entryY=0.5;entryDx=0;entryDy=0;" edge="1" parent="1" source="FgIHQq0aLlLY0QIvVYSB-81" target="FgIHQq0aLlLY0QIvVYSB-87">
          <mxGeometry relative="1" as="geometry" />
        </mxCell>
        <mxCell id="FgIHQq0aLlLY0QIvVYSB-98" style="edgeStyle=orthogonalEdgeStyle;rounded=0;orthogonalLoop=1;jettySize=auto;html=1;entryX=0;entryY=0.5;entryDx=0;entryDy=0;" edge="1" parent="1" source="FgIHQq0aLlLY0QIvVYSB-81" target="FgIHQq0aLlLY0QIvVYSB-91">
          <mxGeometry relative="1" as="geometry" />
        </mxCell>
        <mxCell id="FgIHQq0aLlLY0QIvVYSB-99" style="edgeStyle=orthogonalEdgeStyle;rounded=0;orthogonalLoop=1;jettySize=auto;html=1;entryX=1;entryY=0.5;entryDx=0;entryDy=0;" edge="1" parent="1" source="FgIHQq0aLlLY0QIvVYSB-81" target="FgIHQq0aLlLY0QIvVYSB-88">
          <mxGeometry relative="1" as="geometry" />
        </mxCell>
        <mxCell id="FgIHQq0aLlLY0QIvVYSB-101" value="se preenchido" style="edgeStyle=orthogonalEdgeStyle;rounded=0;orthogonalLoop=1;jettySize=auto;html=1;entryX=0.5;entryY=0;entryDx=0;entryDy=0;" edge="1" parent="1" source="FgIHQq0aLlLY0QIvVYSB-81" target="FgIHQq0aLlLY0QIvVYSB-103">
          <mxGeometry x="0.8235" relative="1" as="geometry">
            <mxPoint x="200" y="-1480.0000000000002" as="targetPoint" />
            <mxPoint y="1" as="offset" />
          </mxGeometry>
        </mxCell>
        <mxCell id="FgIHQq0aLlLY0QIvVYSB-81" value="inserir endereço" style="ellipse;shape=doubleEllipse;whiteSpace=wrap;html=1;fillColor=#647687;fontColor=#ffffff;strokeColor=#314354;" vertex="1" parent="1">
          <mxGeometry x="150" y="-1890" width="100" height="60" as="geometry" />
        </mxCell>
        <mxCell id="FgIHQq0aLlLY0QIvVYSB-85" value="rua" style="ellipse;shape=doubleEllipse;whiteSpace=wrap;html=1;fillColor=#a0522d;fontColor=#ffffff;strokeColor=#6D1F00;" vertex="1" parent="1">
          <mxGeometry x="70" y="-1820" width="100" height="60" as="geometry" />
        </mxCell>
        <mxCell id="FgIHQq0aLlLY0QIvVYSB-86" value="CEP" style="ellipse;shape=doubleEllipse;whiteSpace=wrap;html=1;fillColor=#a0522d;fontColor=#ffffff;strokeColor=#6D1F00;" vertex="1" parent="1">
          <mxGeometry x="70" y="-1740" width="100" height="60" as="geometry" />
        </mxCell>
        <mxCell id="FgIHQq0aLlLY0QIvVYSB-87" value="numero" style="ellipse;shape=doubleEllipse;whiteSpace=wrap;html=1;fillColor=#a0522d;fontColor=#ffffff;strokeColor=#6D1F00;" vertex="1" parent="1">
          <mxGeometry x="70" y="-1660" width="100" height="60" as="geometry" />
        </mxCell>
        <mxCell id="FgIHQq0aLlLY0QIvVYSB-88" value="complemento" style="ellipse;shape=doubleEllipse;whiteSpace=wrap;html=1;fillColor=#a0522d;fontColor=#ffffff;strokeColor=#6D1F00;" vertex="1" parent="1">
          <mxGeometry x="70" y="-1580" width="100" height="60" as="geometry" />
        </mxCell>
        <mxCell id="FgIHQq0aLlLY0QIvVYSB-89" value="bairro" style="ellipse;shape=doubleEllipse;whiteSpace=wrap;html=1;fillColor=#a0522d;fontColor=#ffffff;strokeColor=#6D1F00;" vertex="1" parent="1">
          <mxGeometry x="230" y="-1820" width="100" height="60" as="geometry" />
        </mxCell>
        <mxCell id="FgIHQq0aLlLY0QIvVYSB-90" value="cidade" style="ellipse;shape=doubleEllipse;whiteSpace=wrap;html=1;fillColor=#a0522d;fontColor=#ffffff;strokeColor=#6D1F00;" vertex="1" parent="1">
          <mxGeometry x="230" y="-1740" width="100" height="60" as="geometry" />
        </mxCell>
        <mxCell id="FgIHQq0aLlLY0QIvVYSB-91" value="estado" style="ellipse;shape=doubleEllipse;whiteSpace=wrap;html=1;fillColor=#a0522d;fontColor=#ffffff;strokeColor=#6D1F00;" vertex="1" parent="1">
          <mxGeometry x="230" y="-1660" width="100" height="60" as="geometry" />
        </mxCell>
        <mxCell id="FgIHQq0aLlLY0QIvVYSB-105" style="edgeStyle=orthogonalEdgeStyle;rounded=0;orthogonalLoop=1;jettySize=auto;html=1;" edge="1" parent="1" source="FgIHQq0aLlLY0QIvVYSB-103" target="FgIHQq0aLlLY0QIvVYSB-104">
          <mxGeometry relative="1" as="geometry" />
        </mxCell>
        <mxCell id="FgIHQq0aLlLY0QIvVYSB-103" value="" style="rhombus;whiteSpace=wrap;html=1;fillColor=#647687;fontColor=#ffffff;strokeColor=#314354;" vertex="1" parent="1">
          <mxGeometry x="170" y="-1470" width="60" height="60" as="geometry" />
        </mxCell>
        <mxCell id="FgIHQq0aLlLY0QIvVYSB-110" value="endereço selecionado" style="edgeStyle=orthogonalEdgeStyle;rounded=0;orthogonalLoop=1;jettySize=auto;html=1;entryX=0.5;entryY=0;entryDx=0;entryDy=0;" edge="1" parent="1" source="FgIHQq0aLlLY0QIvVYSB-104" target="FgIHQq0aLlLY0QIvVYSB-109">
          <mxGeometry relative="1" as="geometry" />
        </mxCell>
        <mxCell id="FgIHQq0aLlLY0QIvVYSB-104" value="tela selec. de endereço atual" style="rounded=0;whiteSpace=wrap;html=1;fillColor=#fa6800;fontColor=#000000;strokeColor=#C73500;" vertex="1" parent="1">
          <mxGeometry x="140" y="-1390" width="120" height="60" as="geometry" />
        </mxCell>
        <mxCell id="FgIHQq0aLlLY0QIvVYSB-114" style="edgeStyle=orthogonalEdgeStyle;rounded=0;orthogonalLoop=1;jettySize=auto;html=1;" edge="1" parent="1" source="FgIHQq0aLlLY0QIvVYSB-107" target="FgIHQq0aLlLY0QIvVYSB-113">
          <mxGeometry relative="1" as="geometry">
            <Array as="points">
              <mxPoint x="470" y="-1180" />
              <mxPoint x="470" y="-1660" />
            </Array>
          </mxGeometry>
        </mxCell>
        <mxCell id="FgIHQq0aLlLY0QIvVYSB-107" value="tela atualizada de emdereço" style="rounded=0;whiteSpace=wrap;html=1;fillColor=#fa6800;fontColor=#000000;strokeColor=#C73500;" vertex="1" parent="1">
          <mxGeometry x="140" y="-1210" width="120" height="60" as="geometry" />
        </mxCell>
        <mxCell id="FgIHQq0aLlLY0QIvVYSB-111" style="edgeStyle=orthogonalEdgeStyle;rounded=0;orthogonalLoop=1;jettySize=auto;html=1;entryX=0.5;entryY=0;entryDx=0;entryDy=0;" edge="1" parent="1" source="FgIHQq0aLlLY0QIvVYSB-109" target="FgIHQq0aLlLY0QIvVYSB-107">
          <mxGeometry relative="1" as="geometry" />
        </mxCell>
        <mxCell id="FgIHQq0aLlLY0QIvVYSB-109" value="" style="rhombus;whiteSpace=wrap;html=1;fillColor=#647687;fontColor=#ffffff;strokeColor=#314354;" vertex="1" parent="1">
          <mxGeometry x="170" y="-1290" width="60" height="60" as="geometry" />
        </mxCell>
        <mxCell id="FgIHQq0aLlLY0QIvVYSB-117" style="edgeStyle=orthogonalEdgeStyle;rounded=0;orthogonalLoop=1;jettySize=auto;html=1;" edge="1" parent="1" source="FgIHQq0aLlLY0QIvVYSB-113" target="FgIHQq0aLlLY0QIvVYSB-116">
          <mxGeometry relative="1" as="geometry">
            <Array as="points">
              <mxPoint x="1040" y="-1610" />
              <mxPoint x="550" y="-1610" />
              <mxPoint x="550" y="-1150" />
              <mxPoint x="290" y="-1150" />
            </Array>
          </mxGeometry>
        </mxCell>
        <mxCell id="26vY01cpGO0aiEcNMUjF-17" style="edgeStyle=orthogonalEdgeStyle;rounded=0;orthogonalLoop=1;jettySize=auto;html=1;entryX=0.5;entryY=0;entryDx=0;entryDy=0;" edge="1" parent="1" source="FgIHQq0aLlLY0QIvVYSB-113" target="26vY01cpGO0aiEcNMUjF-16">
          <mxGeometry relative="1" as="geometry">
            <Array as="points">
              <mxPoint x="1040" y="-1610" />
              <mxPoint x="1370" y="-1610" />
            </Array>
          </mxGeometry>
        </mxCell>
        <mxCell id="26vY01cpGO0aiEcNMUjF-33" style="edgeStyle=orthogonalEdgeStyle;rounded=0;orthogonalLoop=1;jettySize=auto;html=1;entryX=0.5;entryY=0;entryDx=0;entryDy=0;" edge="1" parent="1" source="FgIHQq0aLlLY0QIvVYSB-113" target="26vY01cpGO0aiEcNMUjF-26">
          <mxGeometry relative="1" as="geometry" />
        </mxCell>
        <mxCell id="26vY01cpGO0aiEcNMUjF-45" style="edgeStyle=orthogonalEdgeStyle;rounded=0;orthogonalLoop=1;jettySize=auto;html=1;entryX=0.5;entryY=0;entryDx=0;entryDy=0;" edge="1" parent="1" source="FgIHQq0aLlLY0QIvVYSB-113" target="26vY01cpGO0aiEcNMUjF-44">
          <mxGeometry relative="1" as="geometry" />
        </mxCell>
        <mxCell id="26vY01cpGO0aiEcNMUjF-65" style="edgeStyle=orthogonalEdgeStyle;rounded=0;orthogonalLoop=1;jettySize=auto;html=1;entryX=0.5;entryY=0;entryDx=0;entryDy=0;" edge="1" parent="1" source="FgIHQq0aLlLY0QIvVYSB-113" target="26vY01cpGO0aiEcNMUjF-58">
          <mxGeometry relative="1" as="geometry" />
        </mxCell>
        <mxCell id="26vY01cpGO0aiEcNMUjF-88" style="edgeStyle=orthogonalEdgeStyle;rounded=0;orthogonalLoop=1;jettySize=auto;html=1;entryX=0.5;entryY=0;entryDx=0;entryDy=0;" edge="1" parent="1" source="FgIHQq0aLlLY0QIvVYSB-113" target="26vY01cpGO0aiEcNMUjF-75">
          <mxGeometry relative="1" as="geometry" />
        </mxCell>
        <mxCell id="FgIHQq0aLlLY0QIvVYSB-113" value="painel inicial" style="rounded=0;whiteSpace=wrap;html=1;fillColor=#fa6800;fontColor=#000000;strokeColor=#C73500;" vertex="1" parent="1">
          <mxGeometry x="980" y="-1700" width="120" height="60" as="geometry" />
        </mxCell>
        <mxCell id="FgIHQq0aLlLY0QIvVYSB-120" style="edgeStyle=orthogonalEdgeStyle;rounded=0;orthogonalLoop=1;jettySize=auto;html=1;" edge="1" parent="1" source="FgIHQq0aLlLY0QIvVYSB-116" target="FgIHQq0aLlLY0QIvVYSB-119">
          <mxGeometry relative="1" as="geometry" />
        </mxCell>
        <mxCell id="FgIHQq0aLlLY0QIvVYSB-116" value="combos" style="ellipse;shape=doubleEllipse;whiteSpace=wrap;html=1;fillColor=#647687;fontColor=#ffffff;strokeColor=#314354;" vertex="1" parent="1">
          <mxGeometry x="240" y="-1110" width="100" height="60" as="geometry" />
        </mxCell>
        <mxCell id="FgIHQq0aLlLY0QIvVYSB-123" style="edgeStyle=orthogonalEdgeStyle;rounded=0;orthogonalLoop=1;jettySize=auto;html=1;entryX=1;entryY=0.5;entryDx=0;entryDy=0;" edge="1" parent="1" source="FgIHQq0aLlLY0QIvVYSB-119" target="FgIHQq0aLlLY0QIvVYSB-121">
          <mxGeometry relative="1" as="geometry" />
        </mxCell>
        <mxCell id="FgIHQq0aLlLY0QIvVYSB-124" style="edgeStyle=orthogonalEdgeStyle;rounded=0;orthogonalLoop=1;jettySize=auto;html=1;entryX=0;entryY=0.5;entryDx=0;entryDy=0;" edge="1" parent="1" source="FgIHQq0aLlLY0QIvVYSB-119" target="FgIHQq0aLlLY0QIvVYSB-122">
          <mxGeometry relative="1" as="geometry" />
        </mxCell>
        <mxCell id="FgIHQq0aLlLY0QIvVYSB-119" value="tela de combos" style="rounded=0;whiteSpace=wrap;html=1;fillColor=#fa6800;fontColor=#000000;strokeColor=#C73500;" vertex="1" parent="1">
          <mxGeometry x="230" y="-1010" width="120" height="60" as="geometry" />
        </mxCell>
        <mxCell id="FgIHQq0aLlLY0QIvVYSB-131" style="edgeStyle=orthogonalEdgeStyle;rounded=0;orthogonalLoop=1;jettySize=auto;html=1;" edge="1" parent="1" source="FgIHQq0aLlLY0QIvVYSB-121" target="FgIHQq0aLlLY0QIvVYSB-130">
          <mxGeometry relative="1" as="geometry" />
        </mxCell>
        <mxCell id="FgIHQq0aLlLY0QIvVYSB-121" value="combo 1" style="ellipse;shape=doubleEllipse;whiteSpace=wrap;html=1;fillColor=#647687;fontColor=#ffffff;strokeColor=#314354;" vertex="1" parent="1">
          <mxGeometry x="160" y="-920" width="100" height="60" as="geometry" />
        </mxCell>
        <mxCell id="FgIHQq0aLlLY0QIvVYSB-122" value="combo 2" style="ellipse;shape=doubleEllipse;whiteSpace=wrap;html=1;fillColor=#647687;fontColor=#ffffff;strokeColor=#314354;" vertex="1" parent="1">
          <mxGeometry x="311.5" y="-920" width="100" height="60" as="geometry" />
        </mxCell>
        <mxCell id="FgIHQq0aLlLY0QIvVYSB-148" style="edgeStyle=orthogonalEdgeStyle;rounded=0;orthogonalLoop=1;jettySize=auto;html=1;entryX=0;entryY=0.5;entryDx=0;entryDy=0;" edge="1" parent="1" source="FgIHQq0aLlLY0QIvVYSB-130" target="FgIHQq0aLlLY0QIvVYSB-132">
          <mxGeometry relative="1" as="geometry" />
        </mxCell>
        <mxCell id="FgIHQq0aLlLY0QIvVYSB-159" style="edgeStyle=orthogonalEdgeStyle;rounded=0;orthogonalLoop=1;jettySize=auto;html=1;entryX=1;entryY=0.5;entryDx=0;entryDy=0;" edge="1" parent="1" source="FgIHQq0aLlLY0QIvVYSB-130" target="FgIHQq0aLlLY0QIvVYSB-150">
          <mxGeometry relative="1" as="geometry">
            <Array as="points">
              <mxPoint x="210" y="-710" />
              <mxPoint x="180" y="-710" />
            </Array>
          </mxGeometry>
        </mxCell>
        <mxCell id="FgIHQq0aLlLY0QIvVYSB-130" value="escolha de componentes" style="ellipse;shape=doubleEllipse;whiteSpace=wrap;html=1;fillColor=#a0522d;fontColor=#ffffff;strokeColor=#6D1F00;" vertex="1" parent="1">
          <mxGeometry x="160" y="-830" width="100" height="60" as="geometry" />
        </mxCell>
        <mxCell id="FgIHQq0aLlLY0QIvVYSB-140" style="edgeStyle=orthogonalEdgeStyle;rounded=0;orthogonalLoop=1;jettySize=auto;html=1;exitX=0.5;exitY=1;exitDx=0;exitDy=0;" edge="1" parent="1" source="FgIHQq0aLlLY0QIvVYSB-132" target="FgIHQq0aLlLY0QIvVYSB-134">
          <mxGeometry relative="1" as="geometry" />
        </mxCell>
        <mxCell id="FgIHQq0aLlLY0QIvVYSB-132" value="hambúrgueres" style="ellipse;shape=doubleEllipse;whiteSpace=wrap;html=1;fillColor=#a0522d;fontColor=#ffffff;strokeColor=#6D1F00;" vertex="1" parent="1">
          <mxGeometry x="260" y="-740" width="100" height="60" as="geometry" />
        </mxCell>
        <mxCell id="FgIHQq0aLlLY0QIvVYSB-141" style="edgeStyle=orthogonalEdgeStyle;rounded=0;orthogonalLoop=1;jettySize=auto;html=1;exitX=0.5;exitY=1;exitDx=0;exitDy=0;entryX=0.5;entryY=1;entryDx=0;entryDy=0;" edge="1" parent="1" source="FgIHQq0aLlLY0QIvVYSB-134" target="FgIHQq0aLlLY0QIvVYSB-136">
          <mxGeometry relative="1" as="geometry">
            <Array as="points">
              <mxPoint x="310" y="-350" />
              <mxPoint x="310" y="-350" />
            </Array>
          </mxGeometry>
        </mxCell>
        <mxCell id="FgIHQq0aLlLY0QIvVYSB-134" value="hamb. 1" style="ellipse;shape=doubleEllipse;whiteSpace=wrap;html=1;fillColor=#647687;fontColor=#ffffff;strokeColor=#314354;" vertex="1" parent="1">
          <mxGeometry x="260" y="-660" width="100" height="60" as="geometry" />
        </mxCell>
        <mxCell id="FgIHQq0aLlLY0QIvVYSB-163" style="edgeStyle=orthogonalEdgeStyle;rounded=0;orthogonalLoop=1;jettySize=auto;html=1;entryX=0;entryY=0.5;entryDx=0;entryDy=0;" edge="1" parent="1" source="FgIHQq0aLlLY0QIvVYSB-135" target="FgIHQq0aLlLY0QIvVYSB-161">
          <mxGeometry relative="1" as="geometry" />
        </mxCell>
        <mxCell id="FgIHQq0aLlLY0QIvVYSB-135" value="hamb. 4" style="ellipse;shape=doubleEllipse;whiteSpace=wrap;html=1;fillColor=#647687;fontColor=#ffffff;strokeColor=#314354;" vertex="1" parent="1">
          <mxGeometry x="260" y="-410" width="100" height="60" as="geometry" />
        </mxCell>
        <mxCell id="FgIHQq0aLlLY0QIvVYSB-147" style="edgeStyle=orthogonalEdgeStyle;rounded=0;orthogonalLoop=1;jettySize=auto;html=1;entryX=0.5;entryY=1;entryDx=0;entryDy=0;" edge="1" parent="1" source="FgIHQq0aLlLY0QIvVYSB-136" target="FgIHQq0aLlLY0QIvVYSB-146">
          <mxGeometry relative="1" as="geometry">
            <Array as="points">
              <mxPoint x="310" y="-210" />
              <mxPoint x="310" y="-210" />
            </Array>
          </mxGeometry>
        </mxCell>
        <mxCell id="FgIHQq0aLlLY0QIvVYSB-136" value="hamb. 5" style="ellipse;shape=doubleEllipse;whiteSpace=wrap;html=1;fillColor=#647687;fontColor=#ffffff;strokeColor=#314354;" vertex="1" parent="1">
          <mxGeometry x="260" y="-330" width="100" height="60" as="geometry" />
        </mxCell>
        <mxCell id="FgIHQq0aLlLY0QIvVYSB-137" value="hamb. 2" style="ellipse;shape=doubleEllipse;whiteSpace=wrap;html=1;fillColor=#647687;fontColor=#ffffff;strokeColor=#314354;" vertex="1" parent="1">
          <mxGeometry x="260" y="-580" width="100" height="60" as="geometry" />
        </mxCell>
        <mxCell id="FgIHQq0aLlLY0QIvVYSB-133" value="hamb. 3" style="ellipse;shape=doubleEllipse;whiteSpace=wrap;html=1;fillColor=#647687;fontColor=#ffffff;strokeColor=#314354;" vertex="1" parent="1">
          <mxGeometry x="260" y="-490" width="100" height="60" as="geometry" />
        </mxCell>
        <mxCell id="FgIHQq0aLlLY0QIvVYSB-146" value="hamb. 6" style="ellipse;shape=doubleEllipse;whiteSpace=wrap;html=1;fillColor=#647687;fontColor=#ffffff;strokeColor=#314354;" vertex="1" parent="1">
          <mxGeometry x="260" y="-250" width="100" height="60" as="geometry" />
        </mxCell>
        <mxCell id="FgIHQq0aLlLY0QIvVYSB-149" style="edgeStyle=orthogonalEdgeStyle;rounded=0;orthogonalLoop=1;jettySize=auto;html=1;exitX=0.5;exitY=1;exitDx=0;exitDy=0;" edge="1" parent="1" source="FgIHQq0aLlLY0QIvVYSB-150" target="FgIHQq0aLlLY0QIvVYSB-152">
          <mxGeometry relative="1" as="geometry" />
        </mxCell>
        <mxCell id="FgIHQq0aLlLY0QIvVYSB-150" value="bebidas" style="ellipse;shape=doubleEllipse;whiteSpace=wrap;html=1;fillColor=#a0522d;fontColor=#ffffff;strokeColor=#6D1F00;" vertex="1" parent="1">
          <mxGeometry x="80" y="-740" width="100" height="60" as="geometry" />
        </mxCell>
        <mxCell id="FgIHQq0aLlLY0QIvVYSB-151" style="edgeStyle=orthogonalEdgeStyle;rounded=0;orthogonalLoop=1;jettySize=auto;html=1;exitX=0.5;exitY=1;exitDx=0;exitDy=0;entryX=0.5;entryY=1;entryDx=0;entryDy=0;" edge="1" parent="1" source="FgIHQq0aLlLY0QIvVYSB-152" target="FgIHQq0aLlLY0QIvVYSB-155">
          <mxGeometry relative="1" as="geometry">
            <Array as="points">
              <mxPoint x="130" y="-345" />
              <mxPoint x="130" y="-345" />
            </Array>
          </mxGeometry>
        </mxCell>
        <mxCell id="FgIHQq0aLlLY0QIvVYSB-164" style="edgeStyle=orthogonalEdgeStyle;rounded=0;orthogonalLoop=1;jettySize=auto;html=1;entryX=0;entryY=0.5;entryDx=0;entryDy=0;" edge="1" parent="1" source="FgIHQq0aLlLY0QIvVYSB-152" target="FgIHQq0aLlLY0QIvVYSB-161">
          <mxGeometry relative="1" as="geometry">
            <Array as="points">
              <mxPoint x="200" y="-625" />
              <mxPoint x="200" y="-140" />
              <mxPoint x="420" y="-140" />
              <mxPoint x="420" y="-640" />
            </Array>
          </mxGeometry>
        </mxCell>
        <mxCell id="FgIHQq0aLlLY0QIvVYSB-152" value="bebida 1" style="ellipse;shape=doubleEllipse;whiteSpace=wrap;html=1;fillColor=#647687;fontColor=#ffffff;strokeColor=#314354;" vertex="1" parent="1">
          <mxGeometry x="80" y="-655" width="100" height="60" as="geometry" />
        </mxCell>
        <mxCell id="FgIHQq0aLlLY0QIvVYSB-153" value="bebida&amp;nbsp;4" style="ellipse;shape=doubleEllipse;whiteSpace=wrap;html=1;fillColor=#647687;fontColor=#ffffff;strokeColor=#314354;" vertex="1" parent="1">
          <mxGeometry x="80" y="-405" width="100" height="60" as="geometry" />
        </mxCell>
        <mxCell id="FgIHQq0aLlLY0QIvVYSB-154" style="edgeStyle=orthogonalEdgeStyle;rounded=0;orthogonalLoop=1;jettySize=auto;html=1;entryX=0.5;entryY=1;entryDx=0;entryDy=0;" edge="1" parent="1" source="FgIHQq0aLlLY0QIvVYSB-155" target="FgIHQq0aLlLY0QIvVYSB-158">
          <mxGeometry relative="1" as="geometry">
            <Array as="points">
              <mxPoint x="130" y="-205" />
              <mxPoint x="130" y="-205" />
            </Array>
          </mxGeometry>
        </mxCell>
        <mxCell id="FgIHQq0aLlLY0QIvVYSB-155" value="bebida&amp;nbsp;5" style="ellipse;shape=doubleEllipse;whiteSpace=wrap;html=1;fillColor=#647687;fontColor=#ffffff;strokeColor=#314354;" vertex="1" parent="1">
          <mxGeometry x="80" y="-325" width="100" height="60" as="geometry" />
        </mxCell>
        <mxCell id="FgIHQq0aLlLY0QIvVYSB-156" value="bebida&amp;nbsp;2" style="ellipse;shape=doubleEllipse;whiteSpace=wrap;html=1;fillColor=#647687;fontColor=#ffffff;strokeColor=#314354;" vertex="1" parent="1">
          <mxGeometry x="80" y="-575" width="100" height="60" as="geometry" />
        </mxCell>
        <mxCell id="FgIHQq0aLlLY0QIvVYSB-157" value="bebida 3" style="ellipse;shape=doubleEllipse;whiteSpace=wrap;html=1;fillColor=#647687;fontColor=#ffffff;strokeColor=#314354;" vertex="1" parent="1">
          <mxGeometry x="80" y="-485" width="100" height="60" as="geometry" />
        </mxCell>
        <mxCell id="FgIHQq0aLlLY0QIvVYSB-158" value="bebida 6" style="ellipse;shape=doubleEllipse;whiteSpace=wrap;html=1;fillColor=#647687;fontColor=#ffffff;strokeColor=#314354;" vertex="1" parent="1">
          <mxGeometry x="80" y="-245" width="100" height="60" as="geometry" />
        </mxCell>
        <mxCell id="FgIHQq0aLlLY0QIvVYSB-170" value="se sim" style="edgeStyle=orthogonalEdgeStyle;rounded=0;orthogonalLoop=1;jettySize=auto;html=1;entryX=0.5;entryY=0;entryDx=0;entryDy=0;" edge="1" parent="1" source="FgIHQq0aLlLY0QIvVYSB-161" target="FgIHQq0aLlLY0QIvVYSB-167">
          <mxGeometry relative="1" as="geometry" />
        </mxCell>
        <mxCell id="FgIHQq0aLlLY0QIvVYSB-161" value="troca de batata média po grande" style="rounded=0;whiteSpace=wrap;html=1;fillColor=#fa6800;fontColor=#000000;strokeColor=#C73500;" vertex="1" parent="1">
          <mxGeometry x="480" y="-670" width="120" height="60" as="geometry" />
        </mxCell>
        <mxCell id="FgIHQq0aLlLY0QIvVYSB-173" style="edgeStyle=orthogonalEdgeStyle;rounded=0;orthogonalLoop=1;jettySize=auto;html=1;entryX=0.5;entryY=0;entryDx=0;entryDy=0;" edge="1" parent="1" source="FgIHQq0aLlLY0QIvVYSB-165" target="FgIHQq0aLlLY0QIvVYSB-172">
          <mxGeometry relative="1" as="geometry" />
        </mxCell>
        <mxCell id="FgIHQq0aLlLY0QIvVYSB-165" value="adicionar ao carrinho" style="rounded=0;whiteSpace=wrap;html=1;fillColor=#fa6800;fontColor=#000000;strokeColor=#C73500;" vertex="1" parent="1">
          <mxGeometry x="480" y="-470" width="120" height="60" as="geometry" />
        </mxCell>
        <mxCell id="FgIHQq0aLlLY0QIvVYSB-171" style="edgeStyle=orthogonalEdgeStyle;rounded=0;orthogonalLoop=1;jettySize=auto;html=1;" edge="1" parent="1" source="FgIHQq0aLlLY0QIvVYSB-167" target="FgIHQq0aLlLY0QIvVYSB-165">
          <mxGeometry relative="1" as="geometry" />
        </mxCell>
        <mxCell id="FgIHQq0aLlLY0QIvVYSB-167" value="" style="rhombus;whiteSpace=wrap;html=1;fillColor=#647687;fontColor=#ffffff;strokeColor=#314354;" vertex="1" parent="1">
          <mxGeometry x="510" y="-560" width="60" height="60" as="geometry" />
        </mxCell>
        <mxCell id="FgIHQq0aLlLY0QIvVYSB-179" style="edgeStyle=orthogonalEdgeStyle;rounded=0;orthogonalLoop=1;jettySize=auto;html=1;" edge="1" parent="1" source="FgIHQq0aLlLY0QIvVYSB-172" target="FgIHQq0aLlLY0QIvVYSB-177">
          <mxGeometry relative="1" as="geometry" />
        </mxCell>
        <mxCell id="FgIHQq0aLlLY0QIvVYSB-172" value="Carrinho" style="rounded=0;whiteSpace=wrap;html=1;fillColor=#fa6800;fontColor=#000000;strokeColor=#C73500;" vertex="1" parent="1">
          <mxGeometry x="480" y="-370" width="120" height="60" as="geometry" />
        </mxCell>
        <mxCell id="FgIHQq0aLlLY0QIvVYSB-174" style="edgeStyle=orthogonalEdgeStyle;rounded=0;orthogonalLoop=1;jettySize=auto;html=1;exitX=0.5;exitY=1;exitDx=0;exitDy=0;" edge="1" parent="1" source="FgIHQq0aLlLY0QIvVYSB-172" target="FgIHQq0aLlLY0QIvVYSB-172">
          <mxGeometry relative="1" as="geometry" />
        </mxCell>
        <mxCell id="FgIHQq0aLlLY0QIvVYSB-181" style="edgeStyle=orthogonalEdgeStyle;rounded=0;orthogonalLoop=1;jettySize=auto;html=1;" edge="1" parent="1" source="FgIHQq0aLlLY0QIvVYSB-177" target="FgIHQq0aLlLY0QIvVYSB-180">
          <mxGeometry relative="1" as="geometry" />
        </mxCell>
        <mxCell id="FgIHQq0aLlLY0QIvVYSB-177" value="confirmar" style="rounded=0;whiteSpace=wrap;html=1;fillColor=#fa6800;fontColor=#000000;strokeColor=#C73500;" vertex="1" parent="1">
          <mxGeometry x="480" y="-270" width="120" height="60" as="geometry" />
        </mxCell>
        <mxCell id="FgIHQq0aLlLY0QIvVYSB-178" style="edgeStyle=orthogonalEdgeStyle;rounded=0;orthogonalLoop=1;jettySize=auto;html=1;exitX=0.5;exitY=1;exitDx=0;exitDy=0;" edge="1" parent="1" source="FgIHQq0aLlLY0QIvVYSB-177" target="FgIHQq0aLlLY0QIvVYSB-177">
          <mxGeometry relative="1" as="geometry" />
        </mxCell>
        <mxCell id="FgIHQq0aLlLY0QIvVYSB-183" style="edgeStyle=orthogonalEdgeStyle;rounded=0;orthogonalLoop=1;jettySize=auto;html=1;entryX=0.5;entryY=0;entryDx=0;entryDy=0;" edge="1" parent="1" source="FgIHQq0aLlLY0QIvVYSB-180" target="FgIHQq0aLlLY0QIvVYSB-182">
          <mxGeometry relative="1" as="geometry" />
        </mxCell>
        <mxCell id="FgIHQq0aLlLY0QIvVYSB-193" style="edgeStyle=orthogonalEdgeStyle;rounded=0;orthogonalLoop=1;jettySize=auto;html=1;entryX=0.5;entryY=0;entryDx=0;entryDy=0;" edge="1" parent="1" target="FgIHQq0aLlLY0QIvVYSB-192">
          <mxGeometry relative="1" as="geometry">
            <mxPoint x="540" y="-94.99999999999955" as="sourcePoint" />
            <mxPoint x="690" y="-44.39387691339789" as="targetPoint" />
            <Array as="points">
              <mxPoint x="540" y="-65" />
              <mxPoint x="700" y="-65" />
            </Array>
          </mxGeometry>
        </mxCell>
        <mxCell id="FgIHQq0aLlLY0QIvVYSB-180" value="Tela de pagamento atual" style="rounded=0;whiteSpace=wrap;html=1;fillColor=#fa6800;fontColor=#000000;strokeColor=#C73500;" vertex="1" parent="1">
          <mxGeometry x="480" y="-150" width="120" height="60" as="geometry" />
        </mxCell>
        <mxCell id="FgIHQq0aLlLY0QIvVYSB-185" style="edgeStyle=orthogonalEdgeStyle;rounded=0;orthogonalLoop=1;jettySize=auto;html=1;" edge="1" parent="1" source="FgIHQq0aLlLY0QIvVYSB-182" target="FgIHQq0aLlLY0QIvVYSB-184">
          <mxGeometry relative="1" as="geometry" />
        </mxCell>
        <mxCell id="FgIHQq0aLlLY0QIvVYSB-189" style="edgeStyle=orthogonalEdgeStyle;rounded=0;orthogonalLoop=1;jettySize=auto;html=1;entryX=0.5;entryY=0;entryDx=0;entryDy=0;" edge="1" parent="1" source="FgIHQq0aLlLY0QIvVYSB-182" target="FgIHQq0aLlLY0QIvVYSB-187">
          <mxGeometry relative="1" as="geometry" />
        </mxCell>
        <mxCell id="FgIHQq0aLlLY0QIvVYSB-190" style="edgeStyle=orthogonalEdgeStyle;rounded=0;orthogonalLoop=1;jettySize=auto;html=1;entryX=0.5;entryY=0;entryDx=0;entryDy=0;" edge="1" parent="1" source="FgIHQq0aLlLY0QIvVYSB-182" target="FgIHQq0aLlLY0QIvVYSB-186">
          <mxGeometry relative="1" as="geometry">
            <Array as="points">
              <mxPoint x="430" y="120" />
              <mxPoint x="370" y="120" />
            </Array>
          </mxGeometry>
        </mxCell>
        <mxCell id="FgIHQq0aLlLY0QIvVYSB-191" value="ou" style="edgeStyle=orthogonalEdgeStyle;rounded=0;orthogonalLoop=1;jettySize=auto;html=1;" edge="1" parent="1" source="FgIHQq0aLlLY0QIvVYSB-182" target="FgIHQq0aLlLY0QIvVYSB-188">
          <mxGeometry relative="1" as="geometry">
            <Array as="points">
              <mxPoint x="430" y="120" />
              <mxPoint x="500" y="120" />
            </Array>
          </mxGeometry>
        </mxCell>
        <mxCell id="FgIHQq0aLlLY0QIvVYSB-182" value="Formas de pagamento" style="ellipse;shape=doubleEllipse;whiteSpace=wrap;html=1;fillColor=#f0a30a;fontColor=#000000;strokeColor=#BD7000;" vertex="1" parent="1">
          <mxGeometry x="380" y="-40" width="100" height="60" as="geometry" />
        </mxCell>
        <mxCell id="FgIHQq0aLlLY0QIvVYSB-184" value="pix" style="ellipse;shape=doubleEllipse;whiteSpace=wrap;html=1;fillColor=#647687;fontColor=#ffffff;strokeColor=#314354;" vertex="1" parent="1">
          <mxGeometry x="320" y="50" width="100" height="60" as="geometry" />
        </mxCell>
        <mxCell id="FgIHQq0aLlLY0QIvVYSB-200" value="selecionado" style="edgeStyle=orthogonalEdgeStyle;rounded=0;orthogonalLoop=1;jettySize=auto;html=1;entryX=0;entryY=0.5;entryDx=0;entryDy=0;" edge="1" parent="1" source="FgIHQq0aLlLY0QIvVYSB-186" target="FgIHQq0aLlLY0QIvVYSB-199">
          <mxGeometry relative="1" as="geometry">
            <Array as="points">
              <mxPoint x="370" y="280" />
            </Array>
          </mxGeometry>
        </mxCell>
        <mxCell id="FgIHQq0aLlLY0QIvVYSB-186" value="débito" style="ellipse;shape=doubleEllipse;whiteSpace=wrap;html=1;fillColor=#647687;fontColor=#ffffff;strokeColor=#314354;" vertex="1" parent="1">
          <mxGeometry x="320" y="130" width="100" height="60" as="geometry" />
        </mxCell>
        <mxCell id="FgIHQq0aLlLY0QIvVYSB-187" value="crédito" style="ellipse;shape=doubleEllipse;whiteSpace=wrap;html=1;fillColor=#647687;fontColor=#ffffff;strokeColor=#314354;" vertex="1" parent="1">
          <mxGeometry x="440" y="50" width="100" height="60" as="geometry" />
        </mxCell>
        <mxCell id="FgIHQq0aLlLY0QIvVYSB-188" value="dinheiro" style="ellipse;shape=doubleEllipse;whiteSpace=wrap;html=1;fillColor=#647687;fontColor=#ffffff;strokeColor=#314354;" vertex="1" parent="1">
          <mxGeometry x="440" y="130" width="100" height="60" as="geometry" />
        </mxCell>
        <mxCell id="FgIHQq0aLlLY0QIvVYSB-196" style="edgeStyle=orthogonalEdgeStyle;rounded=0;orthogonalLoop=1;jettySize=auto;html=1;" edge="1" parent="1" source="FgIHQq0aLlLY0QIvVYSB-192" target="FgIHQq0aLlLY0QIvVYSB-194">
          <mxGeometry relative="1" as="geometry" />
        </mxCell>
        <mxCell id="FgIHQq0aLlLY0QIvVYSB-197" style="edgeStyle=orthogonalEdgeStyle;rounded=0;orthogonalLoop=1;jettySize=auto;html=1;entryX=0.5;entryY=0;entryDx=0;entryDy=0;" edge="1" parent="1" source="FgIHQq0aLlLY0QIvVYSB-192" target="FgIHQq0aLlLY0QIvVYSB-195">
          <mxGeometry relative="1" as="geometry" />
        </mxCell>
        <mxCell id="FgIHQq0aLlLY0QIvVYSB-192" value="Opções de entrega" style="ellipse;shape=doubleEllipse;whiteSpace=wrap;html=1;fillColor=#f0a30a;fontColor=#000000;strokeColor=#BD7000;" vertex="1" parent="1">
          <mxGeometry x="650" y="-40" width="100" height="60" as="geometry" />
        </mxCell>
        <mxCell id="26vY01cpGO0aiEcNMUjF-161" value="ou" style="edgeStyle=orthogonalEdgeStyle;rounded=0;orthogonalLoop=1;jettySize=auto;html=1;entryX=1;entryY=0.5;entryDx=0;entryDy=0;" edge="1" parent="1" source="FgIHQq0aLlLY0QIvVYSB-194" target="FgIHQq0aLlLY0QIvVYSB-195">
          <mxGeometry x="-0.7143" relative="1" as="geometry">
            <Array as="points">
              <mxPoint x="770" y="80" />
              <mxPoint x="770" y="80" />
            </Array>
            <mxPoint as="offset" />
          </mxGeometry>
        </mxCell>
        <mxCell id="FgIHQq0aLlLY0QIvVYSB-194" value="retirada" style="ellipse;shape=doubleEllipse;whiteSpace=wrap;html=1;fillColor=#647687;fontColor=#ffffff;strokeColor=#314354;" vertex="1" parent="1">
          <mxGeometry x="580" y="50" width="100" height="60" as="geometry" />
        </mxCell>
        <mxCell id="FgIHQq0aLlLY0QIvVYSB-202" value="selecionado" style="edgeStyle=orthogonalEdgeStyle;rounded=0;orthogonalLoop=1;jettySize=auto;html=1;entryX=1;entryY=0.5;entryDx=0;entryDy=0;" edge="1" parent="1" source="FgIHQq0aLlLY0QIvVYSB-195" target="FgIHQq0aLlLY0QIvVYSB-199">
          <mxGeometry x="0.375" relative="1" as="geometry">
            <Array as="points">
              <mxPoint x="770" y="280" />
            </Array>
            <mxPoint as="offset" />
          </mxGeometry>
        </mxCell>
        <mxCell id="FgIHQq0aLlLY0QIvVYSB-195" value="entrega" style="ellipse;shape=doubleEllipse;whiteSpace=wrap;html=1;fillColor=#647687;fontColor=#ffffff;strokeColor=#314354;" vertex="1" parent="1">
          <mxGeometry x="720" y="50" width="100" height="60" as="geometry" />
        </mxCell>
        <mxCell id="FgIHQq0aLlLY0QIvVYSB-205" style="edgeStyle=orthogonalEdgeStyle;rounded=0;orthogonalLoop=1;jettySize=auto;html=1;entryX=0.5;entryY=0;entryDx=0;entryDy=0;" edge="1" parent="1" source="FgIHQq0aLlLY0QIvVYSB-198" target="FgIHQq0aLlLY0QIvVYSB-204">
          <mxGeometry relative="1" as="geometry" />
        </mxCell>
        <mxCell id="FgIHQq0aLlLY0QIvVYSB-198" value="Finalizar pedido" style="rounded=0;whiteSpace=wrap;html=1;fillColor=#fa6800;fontColor=#000000;strokeColor=#C73500;" vertex="1" parent="1">
          <mxGeometry x="530" y="350" width="120" height="60" as="geometry" />
        </mxCell>
        <mxCell id="FgIHQq0aLlLY0QIvVYSB-203" style="edgeStyle=orthogonalEdgeStyle;rounded=0;orthogonalLoop=1;jettySize=auto;html=1;" edge="1" parent="1" source="FgIHQq0aLlLY0QIvVYSB-199" target="FgIHQq0aLlLY0QIvVYSB-198">
          <mxGeometry relative="1" as="geometry" />
        </mxCell>
        <mxCell id="FgIHQq0aLlLY0QIvVYSB-199" value="" style="rhombus;whiteSpace=wrap;html=1;fillColor=#647687;fontColor=#ffffff;strokeColor=#314354;" vertex="1" parent="1">
          <mxGeometry x="560" y="250" width="60" height="60" as="geometry" />
        </mxCell>
        <mxCell id="FgIHQq0aLlLY0QIvVYSB-206" style="edgeStyle=orthogonalEdgeStyle;rounded=0;orthogonalLoop=1;jettySize=auto;html=1;entryX=1;entryY=0.5;entryDx=0;entryDy=0;" edge="1" parent="1" source="FgIHQq0aLlLY0QIvVYSB-204" target="FgIHQq0aLlLY0QIvVYSB-113">
          <mxGeometry relative="1" as="geometry">
            <Array as="points">
              <mxPoint x="5010" y="490" />
              <mxPoint x="5010" y="-1670" />
            </Array>
            <mxPoint x="930" y="-1640" as="targetPoint" />
          </mxGeometry>
        </mxCell>
        <mxCell id="26vY01cpGO0aiEcNMUjF-166" style="edgeStyle=orthogonalEdgeStyle;rounded=0;orthogonalLoop=1;jettySize=auto;html=1;" edge="1" parent="1" source="FgIHQq0aLlLY0QIvVYSB-204" target="26vY01cpGO0aiEcNMUjF-165">
          <mxGeometry relative="1" as="geometry" />
        </mxCell>
        <mxCell id="FgIHQq0aLlLY0QIvVYSB-204" value="Tela de pedido concluído" style="rounded=0;whiteSpace=wrap;html=1;fillColor=#fa6800;fontColor=#000000;strokeColor=#C73500;" vertex="1" parent="1">
          <mxGeometry x="530" y="460" width="120" height="60" as="geometry" />
        </mxCell>
        <mxCell id="26vY01cpGO0aiEcNMUjF-6" value="" style="edgeStyle=orthogonalEdgeStyle;rounded=0;orthogonalLoop=1;jettySize=auto;html=1;" edge="1" parent="1" source="26vY01cpGO0aiEcNMUjF-2" target="26vY01cpGO0aiEcNMUjF-7">
          <mxGeometry relative="1" as="geometry">
            <mxPoint x="830" y="-1520" as="targetPoint" />
          </mxGeometry>
        </mxCell>
        <mxCell id="26vY01cpGO0aiEcNMUjF-12" style="edgeStyle=orthogonalEdgeStyle;rounded=0;orthogonalLoop=1;jettySize=auto;html=1;exitX=0.5;exitY=1;exitDx=0;exitDy=0;entryX=0.5;entryY=0;entryDx=0;entryDy=0;" edge="1" parent="1" source="26vY01cpGO0aiEcNMUjF-7" target="26vY01cpGO0aiEcNMUjF-9">
          <mxGeometry relative="1" as="geometry" />
        </mxCell>
        <mxCell id="26vY01cpGO0aiEcNMUjF-7" value="lanches" style="ellipse;shape=doubleEllipse;whiteSpace=wrap;html=1;fillColor=#647687;fontColor=#ffffff;strokeColor=#314354;" vertex="1" parent="1">
          <mxGeometry x="800" y="-1520" width="100" height="60" as="geometry" />
        </mxCell>
        <mxCell id="26vY01cpGO0aiEcNMUjF-11" style="edgeStyle=orthogonalEdgeStyle;rounded=0;orthogonalLoop=1;jettySize=auto;html=1;entryX=1;entryY=0.5;entryDx=0;entryDy=0;" edge="1" parent="1" source="26vY01cpGO0aiEcNMUjF-8" target="26vY01cpGO0aiEcNMUjF-10">
          <mxGeometry relative="1" as="geometry">
            <Array as="points">
              <mxPoint x="950" y="-1400" />
              <mxPoint x="950" y="-1400" />
            </Array>
          </mxGeometry>
        </mxCell>
        <mxCell id="26vY01cpGO0aiEcNMUjF-8" value="lanche 1" style="ellipse;shape=doubleEllipse;whiteSpace=wrap;html=1;fillColor=#a0522d;fontColor=#ffffff;strokeColor=#6D1F00;" vertex="1" parent="1">
          <mxGeometry x="620" y="-1430" width="100" height="60" as="geometry" />
        </mxCell>
        <mxCell id="26vY01cpGO0aiEcNMUjF-24" style="edgeStyle=orthogonalEdgeStyle;rounded=0;orthogonalLoop=1;jettySize=auto;html=1;" edge="1" parent="1" source="26vY01cpGO0aiEcNMUjF-9" target="26vY01cpGO0aiEcNMUjF-13">
          <mxGeometry relative="1" as="geometry">
            <Array as="points">
              <mxPoint x="850" y="-880" />
            </Array>
          </mxGeometry>
        </mxCell>
        <mxCell id="26vY01cpGO0aiEcNMUjF-9" value="lanche 2" style="ellipse;shape=doubleEllipse;whiteSpace=wrap;html=1;fillColor=#a0522d;fontColor=#ffffff;strokeColor=#6D1F00;" vertex="1" parent="1">
          <mxGeometry x="800" y="-1430" width="100" height="60" as="geometry" />
        </mxCell>
        <mxCell id="26vY01cpGO0aiEcNMUjF-10" value="lanche 3" style="ellipse;shape=doubleEllipse;whiteSpace=wrap;html=1;fillColor=#a0522d;fontColor=#ffffff;strokeColor=#6D1F00;" vertex="1" parent="1">
          <mxGeometry x="970" y="-1430" width="100" height="60" as="geometry" />
        </mxCell>
        <mxCell id="26vY01cpGO0aiEcNMUjF-160" style="edgeStyle=orthogonalEdgeStyle;rounded=0;orthogonalLoop=1;jettySize=auto;html=1;entryX=1;entryY=0.5;entryDx=0;entryDy=0;" edge="1" parent="1" source="26vY01cpGO0aiEcNMUjF-13" target="FgIHQq0aLlLY0QIvVYSB-180">
          <mxGeometry relative="1" as="geometry">
            <Array as="points">
              <mxPoint x="1120" y="-120" />
            </Array>
          </mxGeometry>
        </mxCell>
        <mxCell id="26vY01cpGO0aiEcNMUjF-13" value="carrinho" style="rounded=0;whiteSpace=wrap;html=1;fillColor=#fa6800;fontColor=#000000;strokeColor=#C73500;" vertex="1" parent="1">
          <mxGeometry x="1060" y="-910" width="120" height="60" as="geometry" />
        </mxCell>
        <mxCell id="26vY01cpGO0aiEcNMUjF-15" value="" style="edgeStyle=orthogonalEdgeStyle;rounded=0;orthogonalLoop=1;jettySize=auto;html=1;" edge="1" parent="1" source="FgIHQq0aLlLY0QIvVYSB-113" target="26vY01cpGO0aiEcNMUjF-2">
          <mxGeometry relative="1" as="geometry">
            <mxPoint x="1040" y="-1540" as="targetPoint" />
            <mxPoint x="1040" y="-1640" as="sourcePoint" />
          </mxGeometry>
        </mxCell>
        <mxCell id="26vY01cpGO0aiEcNMUjF-2" value="sugestão de lanches" style="rounded=0;whiteSpace=wrap;html=1;fillColor=#fa6800;fontColor=#000000;strokeColor=#C73500;" vertex="1" parent="1">
          <mxGeometry x="980" y="-1590" width="120" height="60" as="geometry" />
        </mxCell>
        <mxCell id="26vY01cpGO0aiEcNMUjF-16" value="sugestões adicionais" style="rounded=0;whiteSpace=wrap;html=1;fillColor=#fa6800;fontColor=#000000;strokeColor=#C73500;" vertex="1" parent="1">
          <mxGeometry x="1310" y="-1590" width="120" height="60" as="geometry" />
        </mxCell>
        <mxCell id="26vY01cpGO0aiEcNMUjF-18" style="edgeStyle=orthogonalEdgeStyle;rounded=0;orthogonalLoop=1;jettySize=auto;html=1;exitX=0.5;exitY=1;exitDx=0;exitDy=0;entryX=0.5;entryY=0;entryDx=0;entryDy=0;" edge="1" parent="1" source="26vY01cpGO0aiEcNMUjF-19" target="26vY01cpGO0aiEcNMUjF-22">
          <mxGeometry relative="1" as="geometry" />
        </mxCell>
        <mxCell id="26vY01cpGO0aiEcNMUjF-19" value="adicionais" style="ellipse;shape=doubleEllipse;whiteSpace=wrap;html=1;fillColor=#647687;fontColor=#ffffff;strokeColor=#314354;" vertex="1" parent="1">
          <mxGeometry x="1320" y="-1515" width="100" height="60" as="geometry" />
        </mxCell>
        <mxCell id="26vY01cpGO0aiEcNMUjF-20" style="edgeStyle=orthogonalEdgeStyle;rounded=0;orthogonalLoop=1;jettySize=auto;html=1;entryX=1;entryY=0.5;entryDx=0;entryDy=0;" edge="1" parent="1" source="26vY01cpGO0aiEcNMUjF-21" target="26vY01cpGO0aiEcNMUjF-23">
          <mxGeometry relative="1" as="geometry">
            <Array as="points">
              <mxPoint x="1470" y="-1395" />
              <mxPoint x="1470" y="-1395" />
            </Array>
          </mxGeometry>
        </mxCell>
        <mxCell id="26vY01cpGO0aiEcNMUjF-21" value="adicional 1" style="ellipse;shape=doubleEllipse;whiteSpace=wrap;html=1;fillColor=#a0522d;fontColor=#ffffff;strokeColor=#6D1F00;" vertex="1" parent="1">
          <mxGeometry x="1140" y="-1425" width="100" height="60" as="geometry" />
        </mxCell>
        <mxCell id="26vY01cpGO0aiEcNMUjF-25" style="edgeStyle=orthogonalEdgeStyle;rounded=0;orthogonalLoop=1;jettySize=auto;html=1;entryX=1;entryY=0.5;entryDx=0;entryDy=0;" edge="1" parent="1" source="26vY01cpGO0aiEcNMUjF-22" target="26vY01cpGO0aiEcNMUjF-13">
          <mxGeometry relative="1" as="geometry">
            <Array as="points">
              <mxPoint x="1370" y="-880" />
            </Array>
          </mxGeometry>
        </mxCell>
        <mxCell id="26vY01cpGO0aiEcNMUjF-22" value="adicional 2" style="ellipse;shape=doubleEllipse;whiteSpace=wrap;html=1;fillColor=#a0522d;fontColor=#ffffff;strokeColor=#6D1F00;" vertex="1" parent="1">
          <mxGeometry x="1320" y="-1425" width="100" height="60" as="geometry" />
        </mxCell>
        <mxCell id="26vY01cpGO0aiEcNMUjF-23" value="adicional 3" style="ellipse;shape=doubleEllipse;whiteSpace=wrap;html=1;fillColor=#a0522d;fontColor=#ffffff;strokeColor=#6D1F00;" vertex="1" parent="1">
          <mxGeometry x="1490" y="-1425" width="100" height="60" as="geometry" />
        </mxCell>
        <mxCell id="26vY01cpGO0aiEcNMUjF-52" style="edgeStyle=orthogonalEdgeStyle;rounded=0;orthogonalLoop=1;jettySize=auto;html=1;exitX=0.5;exitY=1;exitDx=0;exitDy=0;entryX=0.5;entryY=0;entryDx=0;entryDy=0;" edge="1" parent="1" source="26vY01cpGO0aiEcNMUjF-26" target="26vY01cpGO0aiEcNMUjF-28">
          <mxGeometry relative="1" as="geometry" />
        </mxCell>
        <mxCell id="26vY01cpGO0aiEcNMUjF-26" value="hambúrgueres" style="rounded=0;whiteSpace=wrap;html=1;fillColor=#fa6800;fontColor=#000000;strokeColor=#C73500;" vertex="1" parent="1">
          <mxGeometry x="1830" y="-1590" width="120" height="60" as="geometry" />
        </mxCell>
        <mxCell id="26vY01cpGO0aiEcNMUjF-27" style="edgeStyle=orthogonalEdgeStyle;rounded=0;orthogonalLoop=1;jettySize=auto;html=1;exitX=0.5;exitY=1;exitDx=0;exitDy=0;entryX=0.5;entryY=0;entryDx=0;entryDy=0;" edge="1" parent="1" source="26vY01cpGO0aiEcNMUjF-28" target="26vY01cpGO0aiEcNMUjF-31">
          <mxGeometry relative="1" as="geometry" />
        </mxCell>
        <mxCell id="26vY01cpGO0aiEcNMUjF-28" value="lanches" style="ellipse;shape=doubleEllipse;whiteSpace=wrap;html=1;fillColor=#647687;fontColor=#ffffff;strokeColor=#314354;" vertex="1" parent="1">
          <mxGeometry x="1840" y="-1515" width="100" height="60" as="geometry" />
        </mxCell>
        <mxCell id="26vY01cpGO0aiEcNMUjF-29" style="edgeStyle=orthogonalEdgeStyle;rounded=0;orthogonalLoop=1;jettySize=auto;html=1;entryX=1;entryY=0.5;entryDx=0;entryDy=0;" edge="1" parent="1" source="26vY01cpGO0aiEcNMUjF-30" target="26vY01cpGO0aiEcNMUjF-32">
          <mxGeometry relative="1" as="geometry">
            <Array as="points">
              <mxPoint x="1990" y="-1395" />
              <mxPoint x="1990" y="-1395" />
            </Array>
          </mxGeometry>
        </mxCell>
        <mxCell id="26vY01cpGO0aiEcNMUjF-39" style="edgeStyle=orthogonalEdgeStyle;rounded=0;orthogonalLoop=1;jettySize=auto;html=1;entryX=0.5;entryY=1;entryDx=0;entryDy=0;" edge="1" parent="1" source="26vY01cpGO0aiEcNMUjF-30" target="26vY01cpGO0aiEcNMUjF-36">
          <mxGeometry relative="1" as="geometry">
            <Array as="points">
              <mxPoint x="1710" y="-1280" />
              <mxPoint x="1710" y="-1280" />
            </Array>
          </mxGeometry>
        </mxCell>
        <mxCell id="26vY01cpGO0aiEcNMUjF-30" value="lanche 1" style="ellipse;shape=doubleEllipse;whiteSpace=wrap;html=1;fillColor=#a0522d;fontColor=#ffffff;strokeColor=#6D1F00;" vertex="1" parent="1">
          <mxGeometry x="1660" y="-1425" width="100" height="60" as="geometry" />
        </mxCell>
        <mxCell id="26vY01cpGO0aiEcNMUjF-31" value="lanche 2" style="ellipse;shape=doubleEllipse;whiteSpace=wrap;html=1;fillColor=#a0522d;fontColor=#ffffff;strokeColor=#6D1F00;" vertex="1" parent="1">
          <mxGeometry x="1840" y="-1425" width="100" height="60" as="geometry" />
        </mxCell>
        <mxCell id="26vY01cpGO0aiEcNMUjF-42" style="edgeStyle=orthogonalEdgeStyle;rounded=0;orthogonalLoop=1;jettySize=auto;html=1;entryX=0.5;entryY=1;entryDx=0;entryDy=0;" edge="1" parent="1" source="26vY01cpGO0aiEcNMUjF-32" target="26vY01cpGO0aiEcNMUjF-38">
          <mxGeometry relative="1" as="geometry">
            <Array as="points">
              <mxPoint x="2060" y="-1250" />
              <mxPoint x="2060" y="-1250" />
            </Array>
          </mxGeometry>
        </mxCell>
        <mxCell id="26vY01cpGO0aiEcNMUjF-32" value="lanche 3" style="ellipse;shape=doubleEllipse;whiteSpace=wrap;html=1;fillColor=#a0522d;fontColor=#ffffff;strokeColor=#6D1F00;" vertex="1" parent="1">
          <mxGeometry x="2010" y="-1425" width="100" height="60" as="geometry" />
        </mxCell>
        <mxCell id="26vY01cpGO0aiEcNMUjF-35" style="edgeStyle=orthogonalEdgeStyle;rounded=0;orthogonalLoop=1;jettySize=auto;html=1;entryX=1;entryY=0.5;entryDx=0;entryDy=0;" edge="1" parent="1" source="26vY01cpGO0aiEcNMUjF-36" target="26vY01cpGO0aiEcNMUjF-38">
          <mxGeometry relative="1" as="geometry">
            <Array as="points">
              <mxPoint x="1990" y="-1270" />
              <mxPoint x="1990" y="-1270" />
            </Array>
          </mxGeometry>
        </mxCell>
        <mxCell id="26vY01cpGO0aiEcNMUjF-36" value="lanche 4" style="ellipse;shape=doubleEllipse;whiteSpace=wrap;html=1;fillColor=#a0522d;fontColor=#ffffff;strokeColor=#6D1F00;" vertex="1" parent="1">
          <mxGeometry x="1660" y="-1300" width="100" height="60" as="geometry" />
        </mxCell>
        <mxCell id="26vY01cpGO0aiEcNMUjF-37" value="lanche 5" style="ellipse;shape=doubleEllipse;whiteSpace=wrap;html=1;fillColor=#a0522d;fontColor=#ffffff;strokeColor=#6D1F00;" vertex="1" parent="1">
          <mxGeometry x="1840" y="-1300" width="100" height="60" as="geometry" />
        </mxCell>
        <mxCell id="26vY01cpGO0aiEcNMUjF-43" style="edgeStyle=orthogonalEdgeStyle;rounded=0;orthogonalLoop=1;jettySize=auto;html=1;" edge="1" parent="1" source="26vY01cpGO0aiEcNMUjF-38" target="26vY01cpGO0aiEcNMUjF-13">
          <mxGeometry relative="1" as="geometry">
            <Array as="points">
              <mxPoint x="2060" y="-880" />
            </Array>
          </mxGeometry>
        </mxCell>
        <mxCell id="26vY01cpGO0aiEcNMUjF-38" value="lanche 6" style="ellipse;shape=doubleEllipse;whiteSpace=wrap;html=1;fillColor=#a0522d;fontColor=#ffffff;strokeColor=#6D1F00;" vertex="1" parent="1">
          <mxGeometry x="2010" y="-1300" width="100" height="60" as="geometry" />
        </mxCell>
        <mxCell id="26vY01cpGO0aiEcNMUjF-53" style="edgeStyle=orthogonalEdgeStyle;rounded=0;orthogonalLoop=1;jettySize=auto;html=1;exitX=0.5;exitY=1;exitDx=0;exitDy=0;" edge="1" parent="1" source="26vY01cpGO0aiEcNMUjF-44">
          <mxGeometry relative="1" as="geometry">
            <mxPoint x="2500.3333333333335" y="-1510" as="targetPoint" />
          </mxGeometry>
        </mxCell>
        <mxCell id="26vY01cpGO0aiEcNMUjF-44" value="batatas" style="rounded=0;whiteSpace=wrap;html=1;fillColor=#fa6800;fontColor=#000000;strokeColor=#C73500;" vertex="1" parent="1">
          <mxGeometry x="2440" y="-1590" width="120" height="60" as="geometry" />
        </mxCell>
        <mxCell id="26vY01cpGO0aiEcNMUjF-46" style="edgeStyle=orthogonalEdgeStyle;rounded=0;orthogonalLoop=1;jettySize=auto;html=1;exitX=0.5;exitY=1;exitDx=0;exitDy=0;entryX=0.5;entryY=0;entryDx=0;entryDy=0;" edge="1" parent="1" source="26vY01cpGO0aiEcNMUjF-47" target="26vY01cpGO0aiEcNMUjF-50">
          <mxGeometry relative="1" as="geometry" />
        </mxCell>
        <mxCell id="26vY01cpGO0aiEcNMUjF-47" value="batatas" style="ellipse;shape=doubleEllipse;whiteSpace=wrap;html=1;fillColor=#647687;fontColor=#ffffff;strokeColor=#314354;" vertex="1" parent="1">
          <mxGeometry x="2450" y="-1505" width="100" height="60" as="geometry" />
        </mxCell>
        <mxCell id="26vY01cpGO0aiEcNMUjF-48" style="edgeStyle=orthogonalEdgeStyle;rounded=0;orthogonalLoop=1;jettySize=auto;html=1;entryX=1;entryY=0.5;entryDx=0;entryDy=0;" edge="1" parent="1" source="26vY01cpGO0aiEcNMUjF-49" target="26vY01cpGO0aiEcNMUjF-51">
          <mxGeometry relative="1" as="geometry">
            <Array as="points">
              <mxPoint x="2600" y="-1385" />
              <mxPoint x="2600" y="-1385" />
            </Array>
          </mxGeometry>
        </mxCell>
        <mxCell id="26vY01cpGO0aiEcNMUjF-49" value="batata p" style="ellipse;shape=doubleEllipse;whiteSpace=wrap;html=1;fillColor=#a0522d;fontColor=#ffffff;strokeColor=#6D1F00;" vertex="1" parent="1">
          <mxGeometry x="2270" y="-1415" width="100" height="60" as="geometry" />
        </mxCell>
        <mxCell id="26vY01cpGO0aiEcNMUjF-50" value="batata m" style="ellipse;shape=doubleEllipse;whiteSpace=wrap;html=1;fillColor=#a0522d;fontColor=#ffffff;strokeColor=#6D1F00;" vertex="1" parent="1">
          <mxGeometry x="2450" y="-1415" width="100" height="60" as="geometry" />
        </mxCell>
        <mxCell id="26vY01cpGO0aiEcNMUjF-56" style="edgeStyle=orthogonalEdgeStyle;rounded=0;orthogonalLoop=1;jettySize=auto;html=1;entryX=1;entryY=0.5;entryDx=0;entryDy=0;" edge="1" parent="1" source="26vY01cpGO0aiEcNMUjF-51" target="26vY01cpGO0aiEcNMUjF-13">
          <mxGeometry relative="1" as="geometry">
            <Array as="points">
              <mxPoint x="2670" y="-880" />
            </Array>
          </mxGeometry>
        </mxCell>
        <mxCell id="26vY01cpGO0aiEcNMUjF-51" value="batata g" style="ellipse;shape=doubleEllipse;whiteSpace=wrap;html=1;fillColor=#a0522d;fontColor=#ffffff;strokeColor=#6D1F00;" vertex="1" parent="1">
          <mxGeometry x="2620" y="-1415" width="100" height="60" as="geometry" />
        </mxCell>
        <mxCell id="26vY01cpGO0aiEcNMUjF-57" style="edgeStyle=orthogonalEdgeStyle;rounded=0;orthogonalLoop=1;jettySize=auto;html=1;exitX=0.5;exitY=1;exitDx=0;exitDy=0;" edge="1" parent="1" source="26vY01cpGO0aiEcNMUjF-58">
          <mxGeometry relative="1" as="geometry">
            <mxPoint x="3100.3333333333335" y="-1512.5" as="targetPoint" />
          </mxGeometry>
        </mxCell>
        <mxCell id="26vY01cpGO0aiEcNMUjF-58" value="bebidas" style="rounded=0;whiteSpace=wrap;html=1;fillColor=#fa6800;fontColor=#000000;strokeColor=#C73500;" vertex="1" parent="1">
          <mxGeometry x="3040" y="-1592.5" width="120" height="60" as="geometry" />
        </mxCell>
        <mxCell id="26vY01cpGO0aiEcNMUjF-59" style="edgeStyle=orthogonalEdgeStyle;rounded=0;orthogonalLoop=1;jettySize=auto;html=1;exitX=0.5;exitY=1;exitDx=0;exitDy=0;entryX=0.5;entryY=0;entryDx=0;entryDy=0;" edge="1" parent="1" source="26vY01cpGO0aiEcNMUjF-60" target="26vY01cpGO0aiEcNMUjF-63">
          <mxGeometry relative="1" as="geometry" />
        </mxCell>
        <mxCell id="26vY01cpGO0aiEcNMUjF-60" value="bebidas" style="ellipse;shape=doubleEllipse;whiteSpace=wrap;html=1;fillColor=#647687;fontColor=#ffffff;strokeColor=#314354;" vertex="1" parent="1">
          <mxGeometry x="3050" y="-1507.5" width="100" height="60" as="geometry" />
        </mxCell>
        <mxCell id="26vY01cpGO0aiEcNMUjF-61" style="edgeStyle=orthogonalEdgeStyle;rounded=0;orthogonalLoop=1;jettySize=auto;html=1;entryX=1;entryY=0.5;entryDx=0;entryDy=0;" edge="1" parent="1" source="26vY01cpGO0aiEcNMUjF-62" target="26vY01cpGO0aiEcNMUjF-64">
          <mxGeometry relative="1" as="geometry">
            <Array as="points">
              <mxPoint x="3200" y="-1387.5" />
              <mxPoint x="3200" y="-1387.5" />
            </Array>
          </mxGeometry>
        </mxCell>
        <mxCell id="26vY01cpGO0aiEcNMUjF-72" style="edgeStyle=orthogonalEdgeStyle;rounded=0;orthogonalLoop=1;jettySize=auto;html=1;entryX=0.5;entryY=1;entryDx=0;entryDy=0;" edge="1" parent="1" source="26vY01cpGO0aiEcNMUjF-62" target="26vY01cpGO0aiEcNMUjF-67">
          <mxGeometry relative="1" as="geometry">
            <Array as="points">
              <mxPoint x="2920" y="-1270" />
              <mxPoint x="2920" y="-1270" />
            </Array>
          </mxGeometry>
        </mxCell>
        <mxCell id="26vY01cpGO0aiEcNMUjF-62" value="bebida 1" style="ellipse;shape=doubleEllipse;whiteSpace=wrap;html=1;fillColor=#a0522d;fontColor=#ffffff;strokeColor=#6D1F00;" vertex="1" parent="1">
          <mxGeometry x="2870" y="-1417.5" width="100" height="60" as="geometry" />
        </mxCell>
        <mxCell id="26vY01cpGO0aiEcNMUjF-63" value="bebida 2" style="ellipse;shape=doubleEllipse;whiteSpace=wrap;html=1;fillColor=#a0522d;fontColor=#ffffff;strokeColor=#6D1F00;" vertex="1" parent="1">
          <mxGeometry x="3050" y="-1417.5" width="100" height="60" as="geometry" />
        </mxCell>
        <mxCell id="26vY01cpGO0aiEcNMUjF-71" style="edgeStyle=orthogonalEdgeStyle;rounded=0;orthogonalLoop=1;jettySize=auto;html=1;entryX=0.5;entryY=1;entryDx=0;entryDy=0;" edge="1" parent="1" source="26vY01cpGO0aiEcNMUjF-64" target="26vY01cpGO0aiEcNMUjF-69">
          <mxGeometry relative="1" as="geometry">
            <Array as="points">
              <mxPoint x="3270" y="-1280" />
              <mxPoint x="3270" y="-1280" />
            </Array>
          </mxGeometry>
        </mxCell>
        <mxCell id="26vY01cpGO0aiEcNMUjF-64" value="bebida 3" style="ellipse;shape=doubleEllipse;whiteSpace=wrap;html=1;fillColor=#a0522d;fontColor=#ffffff;strokeColor=#6D1F00;" vertex="1" parent="1">
          <mxGeometry x="3220" y="-1417.5" width="100" height="60" as="geometry" />
        </mxCell>
        <mxCell id="26vY01cpGO0aiEcNMUjF-66" style="edgeStyle=orthogonalEdgeStyle;rounded=0;orthogonalLoop=1;jettySize=auto;html=1;entryX=1;entryY=0.5;entryDx=0;entryDy=0;" edge="1" parent="1" source="26vY01cpGO0aiEcNMUjF-67" target="26vY01cpGO0aiEcNMUjF-69">
          <mxGeometry relative="1" as="geometry">
            <Array as="points">
              <mxPoint x="3200" y="-1270" />
              <mxPoint x="3200" y="-1270" />
            </Array>
          </mxGeometry>
        </mxCell>
        <mxCell id="26vY01cpGO0aiEcNMUjF-73" style="edgeStyle=orthogonalEdgeStyle;rounded=0;orthogonalLoop=1;jettySize=auto;html=1;entryX=1;entryY=0.5;entryDx=0;entryDy=0;" edge="1" parent="1" source="26vY01cpGO0aiEcNMUjF-67" target="26vY01cpGO0aiEcNMUjF-13">
          <mxGeometry relative="1" as="geometry">
            <Array as="points">
              <mxPoint x="2920" y="-880" />
            </Array>
          </mxGeometry>
        </mxCell>
        <mxCell id="26vY01cpGO0aiEcNMUjF-67" value="bebida 4" style="ellipse;shape=doubleEllipse;whiteSpace=wrap;html=1;fillColor=#a0522d;fontColor=#ffffff;strokeColor=#6D1F00;" vertex="1" parent="1">
          <mxGeometry x="2870" y="-1300" width="100" height="60" as="geometry" />
        </mxCell>
        <mxCell id="26vY01cpGO0aiEcNMUjF-68" value="bebida 5" style="ellipse;shape=doubleEllipse;whiteSpace=wrap;html=1;fillColor=#a0522d;fontColor=#ffffff;strokeColor=#6D1F00;" vertex="1" parent="1">
          <mxGeometry x="3050" y="-1300" width="100" height="60" as="geometry" />
        </mxCell>
        <mxCell id="26vY01cpGO0aiEcNMUjF-69" value="bebida 6" style="ellipse;shape=doubleEllipse;whiteSpace=wrap;html=1;fillColor=#a0522d;fontColor=#ffffff;strokeColor=#6D1F00;" vertex="1" parent="1">
          <mxGeometry x="3220" y="-1300" width="100" height="60" as="geometry" />
        </mxCell>
        <mxCell id="26vY01cpGO0aiEcNMUjF-74" style="edgeStyle=orthogonalEdgeStyle;rounded=0;orthogonalLoop=1;jettySize=auto;html=1;exitX=0.5;exitY=1;exitDx=0;exitDy=0;entryX=0.5;entryY=0;entryDx=0;entryDy=0;" edge="1" parent="1" source="26vY01cpGO0aiEcNMUjF-75" target="26vY01cpGO0aiEcNMUjF-83">
          <mxGeometry relative="1" as="geometry">
            <mxPoint x="3730.3333333333335" y="-1510" as="targetPoint" />
          </mxGeometry>
        </mxCell>
        <mxCell id="26vY01cpGO0aiEcNMUjF-75" value="combos" style="rounded=0;whiteSpace=wrap;html=1;fillColor=#fa6800;fontColor=#000000;strokeColor=#C73500;" vertex="1" parent="1">
          <mxGeometry x="3690" y="-1590" width="120" height="60" as="geometry" />
        </mxCell>
        <mxCell id="26vY01cpGO0aiEcNMUjF-94" style="edgeStyle=orthogonalEdgeStyle;rounded=0;orthogonalLoop=1;jettySize=auto;html=1;entryX=0.5;entryY=0;entryDx=0;entryDy=0;" edge="1" parent="1" source="26vY01cpGO0aiEcNMUjF-83" target="26vY01cpGO0aiEcNMUjF-92">
          <mxGeometry relative="1" as="geometry" />
        </mxCell>
        <mxCell id="26vY01cpGO0aiEcNMUjF-115" style="edgeStyle=orthogonalEdgeStyle;rounded=0;orthogonalLoop=1;jettySize=auto;html=1;entryX=0.5;entryY=0;entryDx=0;entryDy=0;" edge="1" parent="1" source="26vY01cpGO0aiEcNMUjF-83" target="26vY01cpGO0aiEcNMUjF-108">
          <mxGeometry relative="1" as="geometry" />
        </mxCell>
        <mxCell id="26vY01cpGO0aiEcNMUjF-119" style="edgeStyle=orthogonalEdgeStyle;rounded=0;orthogonalLoop=1;jettySize=auto;html=1;entryX=0.5;entryY=0;entryDx=0;entryDy=0;" edge="1" parent="1" source="26vY01cpGO0aiEcNMUjF-83" target="26vY01cpGO0aiEcNMUjF-117">
          <mxGeometry relative="1" as="geometry" />
        </mxCell>
        <mxCell id="26vY01cpGO0aiEcNMUjF-120" style="edgeStyle=orthogonalEdgeStyle;rounded=0;orthogonalLoop=1;jettySize=auto;html=1;entryX=0.5;entryY=0;entryDx=0;entryDy=0;" edge="1" parent="1" source="26vY01cpGO0aiEcNMUjF-83" target="26vY01cpGO0aiEcNMUjF-118">
          <mxGeometry relative="1" as="geometry" />
        </mxCell>
        <mxCell id="26vY01cpGO0aiEcNMUjF-144" style="edgeStyle=orthogonalEdgeStyle;rounded=0;orthogonalLoop=1;jettySize=auto;html=1;entryX=0.5;entryY=0;entryDx=0;entryDy=0;" edge="1" parent="1" source="26vY01cpGO0aiEcNMUjF-83" target="26vY01cpGO0aiEcNMUjF-143">
          <mxGeometry relative="1" as="geometry" />
        </mxCell>
        <mxCell id="26vY01cpGO0aiEcNMUjF-83" value="co&lt;span style=&quot;background-color: initial;&quot;&gt;mbo 2&lt;/span&gt;" style="ellipse;shape=doubleEllipse;whiteSpace=wrap;html=1;fillColor=#647687;fontColor=#ffffff;strokeColor=#314354;" vertex="1" parent="1">
          <mxGeometry x="3700" y="-1470" width="100" height="60" as="geometry" />
        </mxCell>
        <mxCell id="26vY01cpGO0aiEcNMUjF-101" style="edgeStyle=orthogonalEdgeStyle;rounded=0;orthogonalLoop=1;jettySize=auto;html=1;entryX=0.5;entryY=1;entryDx=0;entryDy=0;" edge="1" parent="1" source="26vY01cpGO0aiEcNMUjF-92" target="26vY01cpGO0aiEcNMUjF-103">
          <mxGeometry relative="1" as="geometry">
            <Array as="points">
              <mxPoint x="3600" y="-940" />
              <mxPoint x="3600" y="-940" />
            </Array>
          </mxGeometry>
        </mxCell>
        <mxCell id="26vY01cpGO0aiEcNMUjF-92" value="lanche 1" style="ellipse;shape=doubleEllipse;whiteSpace=wrap;html=1;fillColor=#647687;fontColor=#ffffff;strokeColor=#314354;" vertex="1" parent="1">
          <mxGeometry x="3550" y="-1400" width="100" height="60" as="geometry" />
        </mxCell>
        <mxCell id="26vY01cpGO0aiEcNMUjF-96" value="opção 1" style="ellipse;shape=doubleEllipse;whiteSpace=wrap;html=1;fillColor=#fa6800;fontColor=#000000;strokeColor=#C73500;" vertex="1" parent="1">
          <mxGeometry x="3550" y="-1310" width="100" height="60" as="geometry" />
        </mxCell>
        <mxCell id="26vY01cpGO0aiEcNMUjF-97" value="opção 2" style="ellipse;shape=doubleEllipse;whiteSpace=wrap;html=1;fillColor=#fa6800;fontColor=#000000;strokeColor=#C73500;" vertex="1" parent="1">
          <mxGeometry x="3550" y="-1210" width="100" height="60" as="geometry" />
        </mxCell>
        <mxCell id="26vY01cpGO0aiEcNMUjF-98" value="opção 3" style="ellipse;shape=doubleEllipse;whiteSpace=wrap;html=1;fillColor=#fa6800;fontColor=#000000;strokeColor=#C73500;" vertex="1" parent="1">
          <mxGeometry x="3550" y="-1120" width="100" height="60" as="geometry" />
        </mxCell>
        <mxCell id="26vY01cpGO0aiEcNMUjF-99" value="opção 4" style="ellipse;shape=doubleEllipse;whiteSpace=wrap;html=1;fillColor=#fa6800;fontColor=#000000;strokeColor=#C73500;" vertex="1" parent="1">
          <mxGeometry x="3550" y="-1030" width="100" height="60" as="geometry" />
        </mxCell>
        <mxCell id="26vY01cpGO0aiEcNMUjF-102" value="opção 5" style="ellipse;shape=doubleEllipse;whiteSpace=wrap;html=1;fillColor=#fa6800;fontColor=#000000;strokeColor=#C73500;" vertex="1" parent="1">
          <mxGeometry x="3550" y="-950" width="100" height="60" as="geometry" />
        </mxCell>
        <mxCell id="26vY01cpGO0aiEcNMUjF-103" value="opção 6" style="ellipse;shape=doubleEllipse;whiteSpace=wrap;html=1;fillColor=#fa6800;fontColor=#000000;strokeColor=#C73500;" vertex="1" parent="1">
          <mxGeometry x="3550" y="-860" width="100" height="60" as="geometry" />
        </mxCell>
        <mxCell id="26vY01cpGO0aiEcNMUjF-107" style="edgeStyle=orthogonalEdgeStyle;rounded=0;orthogonalLoop=1;jettySize=auto;html=1;entryX=0.5;entryY=1;entryDx=0;entryDy=0;" edge="1" parent="1" source="26vY01cpGO0aiEcNMUjF-108" target="26vY01cpGO0aiEcNMUjF-114">
          <mxGeometry relative="1" as="geometry">
            <Array as="points">
              <mxPoint x="3890" y="-940" />
              <mxPoint x="3890" y="-940" />
            </Array>
          </mxGeometry>
        </mxCell>
        <mxCell id="26vY01cpGO0aiEcNMUjF-108" value="lanche 2" style="ellipse;shape=doubleEllipse;whiteSpace=wrap;html=1;fillColor=#647687;fontColor=#ffffff;strokeColor=#314354;" vertex="1" parent="1">
          <mxGeometry x="3840" y="-1400" width="100" height="60" as="geometry" />
        </mxCell>
        <mxCell id="26vY01cpGO0aiEcNMUjF-109" value="opção 1" style="ellipse;shape=doubleEllipse;whiteSpace=wrap;html=1;fillColor=#fa6800;fontColor=#000000;strokeColor=#C73500;" vertex="1" parent="1">
          <mxGeometry x="3840" y="-1310" width="100" height="60" as="geometry" />
        </mxCell>
        <mxCell id="26vY01cpGO0aiEcNMUjF-110" value="opção 2" style="ellipse;shape=doubleEllipse;whiteSpace=wrap;html=1;fillColor=#fa6800;fontColor=#000000;strokeColor=#C73500;" vertex="1" parent="1">
          <mxGeometry x="3840" y="-1210" width="100" height="60" as="geometry" />
        </mxCell>
        <mxCell id="26vY01cpGO0aiEcNMUjF-111" value="opção 3" style="ellipse;shape=doubleEllipse;whiteSpace=wrap;html=1;fillColor=#fa6800;fontColor=#000000;strokeColor=#C73500;" vertex="1" parent="1">
          <mxGeometry x="3840" y="-1120" width="100" height="60" as="geometry" />
        </mxCell>
        <mxCell id="26vY01cpGO0aiEcNMUjF-112" value="opção 4" style="ellipse;shape=doubleEllipse;whiteSpace=wrap;html=1;fillColor=#fa6800;fontColor=#000000;strokeColor=#C73500;" vertex="1" parent="1">
          <mxGeometry x="3840" y="-1030" width="100" height="60" as="geometry" />
        </mxCell>
        <mxCell id="26vY01cpGO0aiEcNMUjF-113" value="opção 5" style="ellipse;shape=doubleEllipse;whiteSpace=wrap;html=1;fillColor=#fa6800;fontColor=#000000;strokeColor=#C73500;" vertex="1" parent="1">
          <mxGeometry x="3840" y="-950" width="100" height="60" as="geometry" />
        </mxCell>
        <mxCell id="26vY01cpGO0aiEcNMUjF-114" value="opção 6" style="ellipse;shape=doubleEllipse;whiteSpace=wrap;html=1;fillColor=#fa6800;fontColor=#000000;strokeColor=#C73500;" vertex="1" parent="1">
          <mxGeometry x="3840" y="-860" width="100" height="60" as="geometry" />
        </mxCell>
        <mxCell id="26vY01cpGO0aiEcNMUjF-140" style="edgeStyle=orthogonalEdgeStyle;rounded=0;orthogonalLoop=1;jettySize=auto;html=1;exitX=0.5;exitY=1;exitDx=0;exitDy=0;entryX=0.5;entryY=1;entryDx=0;entryDy=0;" edge="1" parent="1" source="26vY01cpGO0aiEcNMUjF-117" target="26vY01cpGO0aiEcNMUjF-133">
          <mxGeometry relative="1" as="geometry">
            <Array as="points">
              <mxPoint x="4120" y="-940" />
              <mxPoint x="4120" y="-940" />
            </Array>
          </mxGeometry>
        </mxCell>
        <mxCell id="26vY01cpGO0aiEcNMUjF-117" value="bebida 1" style="ellipse;shape=doubleEllipse;whiteSpace=wrap;html=1;fillColor=#647687;fontColor=#ffffff;strokeColor=#314354;" vertex="1" parent="1">
          <mxGeometry x="4070" y="-1400" width="100" height="60" as="geometry" />
        </mxCell>
        <mxCell id="26vY01cpGO0aiEcNMUjF-141" style="edgeStyle=orthogonalEdgeStyle;rounded=0;orthogonalLoop=1;jettySize=auto;html=1;exitX=0.5;exitY=1;exitDx=0;exitDy=0;entryX=0.5;entryY=1;entryDx=0;entryDy=0;" edge="1" parent="1" source="26vY01cpGO0aiEcNMUjF-118" target="26vY01cpGO0aiEcNMUjF-139">
          <mxGeometry relative="1" as="geometry">
            <Array as="points">
              <mxPoint x="4320" y="-950" />
              <mxPoint x="4320" y="-950" />
            </Array>
          </mxGeometry>
        </mxCell>
        <mxCell id="26vY01cpGO0aiEcNMUjF-118" value="bebida 2" style="ellipse;shape=doubleEllipse;whiteSpace=wrap;html=1;fillColor=#647687;fontColor=#ffffff;strokeColor=#314354;" vertex="1" parent="1">
          <mxGeometry x="4270" y="-1400" width="100" height="60" as="geometry" />
        </mxCell>
        <mxCell id="26vY01cpGO0aiEcNMUjF-128" value="opção 1" style="ellipse;shape=doubleEllipse;whiteSpace=wrap;html=1;fillColor=#fa6800;fontColor=#000000;strokeColor=#C73500;" vertex="1" parent="1">
          <mxGeometry x="4070" y="-1320" width="100" height="60" as="geometry" />
        </mxCell>
        <mxCell id="26vY01cpGO0aiEcNMUjF-129" value="opção 2" style="ellipse;shape=doubleEllipse;whiteSpace=wrap;html=1;fillColor=#fa6800;fontColor=#000000;strokeColor=#C73500;" vertex="1" parent="1">
          <mxGeometry x="4070" y="-1220" width="100" height="60" as="geometry" />
        </mxCell>
        <mxCell id="26vY01cpGO0aiEcNMUjF-130" value="opção 3" style="ellipse;shape=doubleEllipse;whiteSpace=wrap;html=1;fillColor=#fa6800;fontColor=#000000;strokeColor=#C73500;" vertex="1" parent="1">
          <mxGeometry x="4070" y="-1130" width="100" height="60" as="geometry" />
        </mxCell>
        <mxCell id="26vY01cpGO0aiEcNMUjF-131" value="opção 4" style="ellipse;shape=doubleEllipse;whiteSpace=wrap;html=1;fillColor=#fa6800;fontColor=#000000;strokeColor=#C73500;" vertex="1" parent="1">
          <mxGeometry x="4070" y="-1040" width="100" height="60" as="geometry" />
        </mxCell>
        <mxCell id="26vY01cpGO0aiEcNMUjF-132" value="opção 5" style="ellipse;shape=doubleEllipse;whiteSpace=wrap;html=1;fillColor=#fa6800;fontColor=#000000;strokeColor=#C73500;" vertex="1" parent="1">
          <mxGeometry x="4070" y="-960" width="100" height="60" as="geometry" />
        </mxCell>
        <mxCell id="26vY01cpGO0aiEcNMUjF-133" value="opção 6" style="ellipse;shape=doubleEllipse;whiteSpace=wrap;html=1;fillColor=#fa6800;fontColor=#000000;strokeColor=#C73500;" vertex="1" parent="1">
          <mxGeometry x="4070" y="-870" width="100" height="60" as="geometry" />
        </mxCell>
        <mxCell id="26vY01cpGO0aiEcNMUjF-134" value="opção 1" style="ellipse;shape=doubleEllipse;whiteSpace=wrap;html=1;fillColor=#fa6800;fontColor=#000000;strokeColor=#C73500;" vertex="1" parent="1">
          <mxGeometry x="4270" y="-1320" width="100" height="60" as="geometry" />
        </mxCell>
        <mxCell id="26vY01cpGO0aiEcNMUjF-135" value="opção 2" style="ellipse;shape=doubleEllipse;whiteSpace=wrap;html=1;fillColor=#fa6800;fontColor=#000000;strokeColor=#C73500;" vertex="1" parent="1">
          <mxGeometry x="4270" y="-1220" width="100" height="60" as="geometry" />
        </mxCell>
        <mxCell id="26vY01cpGO0aiEcNMUjF-136" value="opção 3" style="ellipse;shape=doubleEllipse;whiteSpace=wrap;html=1;fillColor=#fa6800;fontColor=#000000;strokeColor=#C73500;" vertex="1" parent="1">
          <mxGeometry x="4270" y="-1130" width="100" height="60" as="geometry" />
        </mxCell>
        <mxCell id="26vY01cpGO0aiEcNMUjF-137" value="opção 4" style="ellipse;shape=doubleEllipse;whiteSpace=wrap;html=1;fillColor=#fa6800;fontColor=#000000;strokeColor=#C73500;" vertex="1" parent="1">
          <mxGeometry x="4270" y="-1040" width="100" height="60" as="geometry" />
        </mxCell>
        <mxCell id="26vY01cpGO0aiEcNMUjF-138" value="opção 5" style="ellipse;shape=doubleEllipse;whiteSpace=wrap;html=1;fillColor=#fa6800;fontColor=#000000;strokeColor=#C73500;" vertex="1" parent="1">
          <mxGeometry x="4270" y="-960" width="100" height="60" as="geometry" />
        </mxCell>
        <mxCell id="26vY01cpGO0aiEcNMUjF-139" value="opção 6" style="ellipse;shape=doubleEllipse;whiteSpace=wrap;html=1;fillColor=#fa6800;fontColor=#000000;strokeColor=#C73500;" vertex="1" parent="1">
          <mxGeometry x="4270" y="-870" width="100" height="60" as="geometry" />
        </mxCell>
        <mxCell id="26vY01cpGO0aiEcNMUjF-147" value="" style="edgeStyle=orthogonalEdgeStyle;rounded=0;orthogonalLoop=1;jettySize=auto;html=1;" edge="1" parent="1" source="26vY01cpGO0aiEcNMUjF-143" target="26vY01cpGO0aiEcNMUjF-145">
          <mxGeometry relative="1" as="geometry" />
        </mxCell>
        <mxCell id="26vY01cpGO0aiEcNMUjF-143" value="troca de batata" style="rounded=0;whiteSpace=wrap;html=1;fillColor=#fa6800;fontColor=#000000;strokeColor=#C73500;" vertex="1" parent="1">
          <mxGeometry x="4620" y="-990" width="120" height="60" as="geometry" />
        </mxCell>
        <mxCell id="26vY01cpGO0aiEcNMUjF-150" value="não" style="edgeStyle=orthogonalEdgeStyle;rounded=0;orthogonalLoop=1;jettySize=auto;html=1;entryX=0.5;entryY=0;entryDx=0;entryDy=0;" edge="1" parent="1" source="26vY01cpGO0aiEcNMUjF-145" target="26vY01cpGO0aiEcNMUjF-149">
          <mxGeometry relative="1" as="geometry" />
        </mxCell>
        <mxCell id="26vY01cpGO0aiEcNMUjF-151" style="edgeStyle=orthogonalEdgeStyle;rounded=0;orthogonalLoop=1;jettySize=auto;html=1;entryX=0.5;entryY=0;entryDx=0;entryDy=0;" edge="1" parent="1" source="26vY01cpGO0aiEcNMUjF-145" target="26vY01cpGO0aiEcNMUjF-148">
          <mxGeometry relative="1" as="geometry" />
        </mxCell>
        <mxCell id="26vY01cpGO0aiEcNMUjF-152" value="sim" style="edgeLabel;html=1;align=center;verticalAlign=middle;resizable=0;points=[];" connectable="0" vertex="1" parent="26vY01cpGO0aiEcNMUjF-151">
          <mxGeometry x="-0.3681" y="-4" relative="1" as="geometry">
            <mxPoint as="offset" />
          </mxGeometry>
        </mxCell>
        <mxCell id="26vY01cpGO0aiEcNMUjF-145" value="" style="rhombus;whiteSpace=wrap;html=1;fillColor=#647687;fontColor=#ffffff;strokeColor=#314354;" vertex="1" parent="1">
          <mxGeometry x="4650" y="-882.5" width="60" height="60" as="geometry" />
        </mxCell>
        <mxCell id="26vY01cpGO0aiEcNMUjF-155" style="edgeStyle=orthogonalEdgeStyle;rounded=0;orthogonalLoop=1;jettySize=auto;html=1;entryX=0;entryY=0.5;entryDx=0;entryDy=0;" edge="1" parent="1" source="26vY01cpGO0aiEcNMUjF-148" target="26vY01cpGO0aiEcNMUjF-154">
          <mxGeometry relative="1" as="geometry" />
        </mxCell>
        <mxCell id="26vY01cpGO0aiEcNMUjF-148" value="incluir" style="rounded=0;whiteSpace=wrap;html=1;fillColor=#fa6800;fontColor=#000000;strokeColor=#C73500;" vertex="1" parent="1">
          <mxGeometry x="4520" y="-802.5" width="120" height="60" as="geometry" />
        </mxCell>
        <mxCell id="26vY01cpGO0aiEcNMUjF-156" style="edgeStyle=orthogonalEdgeStyle;rounded=0;orthogonalLoop=1;jettySize=auto;html=1;entryX=1;entryY=0.5;entryDx=0;entryDy=0;" edge="1" parent="1" source="26vY01cpGO0aiEcNMUjF-149" target="26vY01cpGO0aiEcNMUjF-154">
          <mxGeometry relative="1" as="geometry" />
        </mxCell>
        <mxCell id="26vY01cpGO0aiEcNMUjF-149" value="não incluir" style="rounded=0;whiteSpace=wrap;html=1;fillColor=#fa6800;fontColor=#000000;strokeColor=#C73500;" vertex="1" parent="1">
          <mxGeometry x="4730" y="-802.5" width="120" height="60" as="geometry" />
        </mxCell>
        <mxCell id="26vY01cpGO0aiEcNMUjF-154" value="finalizar pedido" style="rounded=0;whiteSpace=wrap;html=1;fillColor=#fa6800;fontColor=#000000;strokeColor=#C73500;" vertex="1" parent="1">
          <mxGeometry x="4630" y="-682.5" width="130" height="60" as="geometry" />
        </mxCell>
        <mxCell id="26vY01cpGO0aiEcNMUjF-157" style="edgeStyle=orthogonalEdgeStyle;rounded=0;orthogonalLoop=1;jettySize=auto;html=1;entryX=0.5;entryY=1;entryDx=0;entryDy=0;" edge="1" parent="1" source="26vY01cpGO0aiEcNMUjF-154" target="26vY01cpGO0aiEcNMUjF-13">
          <mxGeometry relative="1" as="geometry">
            <Array as="points">
              <mxPoint x="1120" y="-640" />
            </Array>
          </mxGeometry>
        </mxCell>
        <mxCell id="26vY01cpGO0aiEcNMUjF-169" style="edgeStyle=orthogonalEdgeStyle;rounded=0;orthogonalLoop=1;jettySize=auto;html=1;entryX=0.5;entryY=0;entryDx=0;entryDy=0;" edge="1" parent="1" source="26vY01cpGO0aiEcNMUjF-165" target="26vY01cpGO0aiEcNMUjF-168">
          <mxGeometry relative="1" as="geometry" />
        </mxCell>
        <mxCell id="26vY01cpGO0aiEcNMUjF-165" value="Tela de início pós compra" style="rounded=0;whiteSpace=wrap;html=1;fillColor=#fa6800;fontColor=#000000;strokeColor=#C73500;" vertex="1" parent="1">
          <mxGeometry x="530" y="600" width="120" height="60" as="geometry" />
        </mxCell>
        <mxCell id="26vY01cpGO0aiEcNMUjF-172" style="edgeStyle=orthogonalEdgeStyle;rounded=0;orthogonalLoop=1;jettySize=auto;html=1;entryX=0.5;entryY=0;entryDx=0;entryDy=0;fillColor=#a0522d;strokeColor=#6D1F00;" edge="1" parent="1" source="26vY01cpGO0aiEcNMUjF-168" target="26vY01cpGO0aiEcNMUjF-171">
          <mxGeometry relative="1" as="geometry" />
        </mxCell>
        <mxCell id="26vY01cpGO0aiEcNMUjF-168" value="conta" style="rounded=0;whiteSpace=wrap;html=1;fillColor=#fa6800;fontColor=#000000;strokeColor=#C73500;" vertex="1" parent="1">
          <mxGeometry x="530" y="710" width="120" height="60" as="geometry" />
        </mxCell>
        <mxCell id="26vY01cpGO0aiEcNMUjF-175" style="edgeStyle=orthogonalEdgeStyle;rounded=0;orthogonalLoop=1;jettySize=auto;html=1;fillColor=#a0522d;strokeColor=#6D1F00;" edge="1" parent="1" source="26vY01cpGO0aiEcNMUjF-171" target="26vY01cpGO0aiEcNMUjF-173">
          <mxGeometry relative="1" as="geometry" />
        </mxCell>
        <mxCell id="26vY01cpGO0aiEcNMUjF-176" style="edgeStyle=orthogonalEdgeStyle;rounded=0;orthogonalLoop=1;jettySize=auto;html=1;entryX=0.5;entryY=0;entryDx=0;entryDy=0;fillColor=#a0522d;strokeColor=#6D1F00;" edge="1" parent="1" source="26vY01cpGO0aiEcNMUjF-171" target="26vY01cpGO0aiEcNMUjF-174">
          <mxGeometry relative="1" as="geometry" />
        </mxCell>
        <mxCell id="26vY01cpGO0aiEcNMUjF-171" value="histórico de pedido" style="rounded=0;whiteSpace=wrap;html=1;fillColor=#a0522d;fontColor=#ffffff;strokeColor=#6D1F00;" vertex="1" parent="1">
          <mxGeometry x="530" y="810" width="120" height="60" as="geometry" />
        </mxCell>
        <mxCell id="26vY01cpGO0aiEcNMUjF-178" style="edgeStyle=orthogonalEdgeStyle;rounded=0;orthogonalLoop=1;jettySize=auto;html=1;fillColor=#a0522d;strokeColor=#6D1F00;" edge="1" parent="1" source="26vY01cpGO0aiEcNMUjF-173" target="26vY01cpGO0aiEcNMUjF-177">
          <mxGeometry relative="1" as="geometry" />
        </mxCell>
        <mxCell id="26vY01cpGO0aiEcNMUjF-173" value="pedido 1" style="rounded=0;whiteSpace=wrap;html=1;fillColor=#a0522d;fontColor=#ffffff;strokeColor=#6D1F00;" vertex="1" parent="1">
          <mxGeometry x="400" y="890" width="120" height="60" as="geometry" />
        </mxCell>
        <mxCell id="26vY01cpGO0aiEcNMUjF-181" style="edgeStyle=orthogonalEdgeStyle;rounded=0;orthogonalLoop=1;jettySize=auto;html=1;entryX=0.5;entryY=0;entryDx=0;entryDy=0;fillColor=#a0522d;strokeColor=#6D1F00;" edge="1" parent="1" source="26vY01cpGO0aiEcNMUjF-174" target="26vY01cpGO0aiEcNMUjF-180">
          <mxGeometry relative="1" as="geometry" />
        </mxCell>
        <mxCell id="26vY01cpGO0aiEcNMUjF-174" value="pedido 2" style="rounded=0;whiteSpace=wrap;html=1;fillColor=#a0522d;fontColor=#ffffff;strokeColor=#6D1F00;" vertex="1" parent="1">
          <mxGeometry x="660" y="890" width="120" height="60" as="geometry" />
        </mxCell>
        <mxCell id="26vY01cpGO0aiEcNMUjF-177" value="informações" style="rounded=0;whiteSpace=wrap;html=1;fillColor=#e51400;fontColor=#ffffff;strokeColor=#B20000;" vertex="1" parent="1">
          <mxGeometry x="400" y="990" width="120" height="60" as="geometry" />
        </mxCell>
        <mxCell id="26vY01cpGO0aiEcNMUjF-180" value="informações" style="rounded=0;whiteSpace=wrap;html=1;fillColor=#e51400;fontColor=#ffffff;strokeColor=#B20000;" vertex="1" parent="1">
          <mxGeometry x="660" y="990" width="120" height="60" as="geometry" />
        </mxCell>
      </root>
    </mxGraphModel>
  </diagram>
</mxfile>
